<?xml version="1.0" encoding="UTF-8"?>
<svg id="a" data-name="Layer 1" xmlns="http://www.w3.org/2000/svg" width="1000" height="1000" viewBox="0 0 1000 1000">
  <defs>
    <style>
      .b {
        fill: #3b78b8;
      }

      .c {
        fill: #c05b27;
      }

      .d {
        fill: #dbdcdf;
      }

      .e {
        fill: #1a1a1a;
      }

      .f {
        fill: #e68324;
      }

      .g {
        fill: #c56829;
      }

      .h {
        fill: #1d65b0;
      }

      .i {
        fill: #d28f29;
      }

      .j {
        fill: #afb3b7;
      }

      .k {
        fill: #9ca0a4;
      }

      .l {
        fill: #e2e4e6;
      }

      .m {
        fill: #8f4620;
      }

      .n {
        fill: #11161e;
      }

      .o {
        fill: #f2c31a;
      }

      .p {
        fill: #14283b;
      }

      .q {
        fill: #f1f1f1;
      }
    </style>
  </defs>
  <path class="p" d="M1000.32.02v1000.34H-.02V.02h1000.34ZM214.89,550.5c-.31,6.1,0,12.43,0,18.56,0,37.29,61.55,73.45,89.96,90.77,49.89,30.41,108.79,57.44,165.98,70.43,19.97,4.54,49.69,10.12,69.84,8.27,9.81-.9,11.76-1.88,13.09-11.33,3.98-28.24,3.74-56.54-.02-84.74-.69-5.21-4.27-13.5-2.29-18.19,29.03-26.61,57.27-54.1,84.49-82.54,3.72-1.7,7.52.42,11.18.51,27.31.64,42.45-6.77,54.48-31.59.67-1.39.42-3.39,1.02-4.33.42-.67,10.69-6.99,12.96-9.02,16.35-14.73,23.78-35.55,24.81-57.25l62.86-81.23c34.93-5.09,65.8-26.49,77.9-60.33,11.85-33.11,7.66-81.3-10.57-111.57-2.22-3.69-15.14-20.82-19.73-18.45-2.72,1.41-4.76,16.74-6.36,21.07-10.88,29.35-48.8,37.8-68.89,60.06-19.2,21.29-24.56,49.42-17.66,77.03-12.52,11.26-24.13,23.46-36.08,35.31-1.82,1.81-9.59,11.59-12.05,11.19l-54.86-56.58c-5.46-8.1-16.08-15.73-21.02-23.92-2.41-3.99-1.99-11.67-3.61-16.91-3.61-11.68-13.78-22.16-22.82-29.92-1.72-1.47-6.6-2.7-4.2-4.55,1.12-.87,4.71-1.89,6.53-3.06,5.09-3.26,11.74-8.43,14.1-14.23,5-12.32-3.81-8.19-11.7-9.28-10.36-1.43-22.19-8.2-29.95-15.06,2-8.68,5.58-16.9,7.26-25.68,3.19-16.68,3.09-34.32.17-51.04-.8-4.56-2.9-15.25-6.01-18.42-7.17-7.31-22.75,6.89-28.36,11.81-15.24,13.35-28.02,30.67-40.05,46.91-.76.97-1.38,1.66-2.73,1.67-2.24.02-19.27-1.3-20.12-1.84-4.49-17.33-5.67-38.26-13.32-54.58-7.36-15.72-14.81-13.32-26.88-3.43-18.81,15.42-30.12,40.17-37.25,62.89-33.95,1.09-67.91,14-94.54,34.9-28.22,22.15-47.05,55.03-75.97,75.45-7.74,5.46-22.51,8.77-6.44,14.61,5.6,2.04,11.01,2.2,16.87,2.66-16.29,17.71-28.46,38.25-36.87,60.82-7.28,19.54-10.92,41.82-22.9,59.16-2.22,3.21-16.75,19.21-16.43,20.67,1.42,6.54,28.49-1.15,33.2-2.92-20.02,40.86-23.54,87.56-11.69,131.4,1.06.84,12.1-16.06,13.64-17.12,3.72-2.59,1.03,2.49,1.01,2.96ZM509.92,857.74h18.57c1.31-1.31-1.59-34.47,0-37.12h37.12v37.12c5.57-.5,12.17.69,17.58,0,.71-.09,2.08.48,1.97-.58l.07-85.95c.31-1.86-1.96-1.27-2.04-1.39-.28-.46.61-2.69-.49-2.98-2-.53-5.32,1.09-7.76,1.06s-11.28-3.24-11.28,2.41v33.7h-34.19v-33.7c0-5.69-19.39-3.78-20.39-.85l.85,88.28ZM164.1,769.82c-.71.09-2.08-.48-1.97.58v86.85c.18,1.24,1.65-.54,1.97-.49,5.96,1.06,11.33,1.25,17.58.98v-87.92c-5.57.5-12.17-.69-17.58,0ZM251.04,799.12c-3.41.26-6.53-4.29-9.83-6.29-4.72-2.86-10.44-3.41-15.91-3.14-6.36.32-5.37,2.63-8.45,5.03-1.49,1.16-4.13.81-3.92,3.42l-1.94-3.9c0-.33,0-.65,0-.98,0-.2,2.29-1.32-1.47-1.95-1.75-.29-14.39-.26-14.96.23-.46.4-.06,1.6-.18,1.72-.16.16-2.33-.55-2.04,1.4.87,20.07-.89,40.64.08,60.65.12,2.4-.71,3.2,1.95,1.45,0,.32-.02.65,0,.98.04.65-.06,1.31,0,1.95,8.08-1.41,17.64,4.48,18.61-6.3s-1.62-23.67-.73-33.13c.21-2.24,3.54-8.6,5.5-9.96,5.17-3.6,12.79-2.24,14.53,4.24.73,2.71-.79,3.8-.79,4.62v38.59c2.29.13,1.73.33,1.96-1.45,1.58-12.38-1.18-27.84,0-40.56.11.64.93,1.44,1.05,3.3.82,12.54-.76,26.06-.07,38.7h15.63l.98-43.96c.46-.74.84-1.76.98-1.95.24-.34,1.25-1.03,1.95-1.95.27-.35.69-.63.98-.98.65-.33,1.31-.64,1.95-.98,4.97-2.57,7.7-2.96,12.7,0,.12.07,1.48,1.5,1.95,1.95,4.1,15.18,1,32.12,1.95,47.87,2.92-.06,5.88.07,8.8,0-1.59,2.31-7.05.16-8.79.99v.97s16.6,0,16.6,0c.45-1.79.88-3.45,1.03-5.33.93-11.86,1.27-42.47-1.9-52.92-.38-1.26.38-4.02-2.06-1.35-.11-.33-.71-.73-.98-1.95-.04-.17,1.21-1.25.57-1.99-2.84-.34-4.81-3.52-6.47-4.32-3.7-1.78-17.1-2.45-20.76-1.52-.95.24-1.1,2.15-2.24,2.83-1.61.97-4.14,1-5.39,2.49-1.15,1.38-.56,2.8-.88,3.48ZM310.63,795.21c-.67.45-7.07,7.71-7.82,8.79-2.07,2.98-2.5,2.27-.98,5.86.13.3-.15.82,0,.98,1.78,1.81,14.18,1.41,16.61,0,.3-.17.63-.68.98-.98,1.6-1.36,1.77-2.95,4.31-3.99,5.36-2.2,16.96-.9,13.28,6.91l1.93-1.94c.77,5.14-6.38,5.14-10.37,5.74-4.94.74-12.92.17-17.29,1.12-.65.14-.67,1.49-.91,1.6-1.59.71-6.49,2.74-8.28,4.5-3.51,3.47-6.44,13.4-5.57,18.43.56,3.22,3.25,8.52,5.3,11.1.6.76,6.19,6.16,6.63,6.31,5.12,1.84,21.79,1.7,26.52-1.5.21-.14,3.74-3.87,2.02-4.32.39-.61.63-1.32.98-1.95.91-.45,2.14-1.79,2.93-1.95.15,1.29.74,7.49,1.02,7.76.62.6,14.16-.33,16.56.04-5.29-15.24,1.19-36-2.93-50.79,2.56-5.86-.56-4.13-1.7-5.09-.42-.36-.81-3.05-2.63-4.76-8.62-8.12-24.76-9.43-35.41-4.98-1.81.76-3.87,1.62-5.2,3.1ZM378.04,851.87c.53.63-.17,1.53,2.2,3.15,1.42.98,10.2,3.45,12.05,3.65,4.13.45,10.28-1.66,14-3.48,1.98-.96,2.83-4.39,4.12-.97,2.48,6.59-4.35,12.69-10.51,13.24-.86.08-9.44-.41-9.9-.6-1.34-.57-2.04-5.09-5.63-6.18-2.72-.82-15.48-1.71-16.94.11-.2.24-1.14,5.83-1.12,6.14.04.55,1.49.53,1.6.81.27.68.45,3.3.59,3.46,1.03,1.1,12.67,11.12,13.5,11.41,3.45,1.21,4.32-.54,6.22-.49.57.01.45,1.77,1.21,1.97,2.55.69,17.59-.97,20.98-1.51s5.55-2.85,7.43-4.3c5.5-4.24,8.63-5.75,11.05-13.18,3.29-10.12,3.15-56.39,1.96-68.49-.27-2.75-.18-4.66-3.5-5.29-1.8-.34-14.18-.37-15.49.09-2.3.8-.57,3.83-2.55,3.78.45-3.08-1.52-.77-3.67-1.6-1.34-.52-5.01-3.78-8.34-3.99-2.29-.14-12.87.78-14.98,1.53-1.2.43-3.23,3.03-4.28,4.06-.41.4-.57,1.59-.98,1.95-1.85,1.68-3.98,3.24-5.86,4.88-2.35,2.04-3.09.77-4.61,5.65-2.03,6.57-3.55,15.43-3.13,22.09.22,3.51,6.31,16.96,8.76,18.75,1.01.74,1.81-.62,1.91-.58,1.98.75,2.72,2.49,3.91,3.91ZM500.15,828.43c.49-.2,1.76.58,2.01-.61-.53-9.07-.3-14.16-5.12-22.16-3.76-6.23-12.72-15-20.1-16.13-2.33-.36-3.91.93-5.65.85-10.3-.47-13.91-.65-21.88,5.39-2.07,1.57-8.31,7.5-9.31,9.19-.49.82.62,1.99.27,2.73-.11.25-1.51.24-2.05,1.45-1.09,2.43-3.05,22.73-2.66,24.48.15.67,1.58.55,1.9,1.41,1.39,3.74-.2,5.77,2.72,10.72,2.39,4.06,10.25,11.79,14.83,13.33,6.9,2.33,23.03,2.97,29.64-.34.47-.24.63-1.24,1.14-1.62,2.38-1.73,1.29.01,3.51-3.28.15-.23-.15-.76,0-.98.96-1.32,2.04-2.55,2.93-3.91.3-.45,1.88-1.17,2.78-2.57,1.42-2.21,1.98-4.86,3.09-7.2h-16.61c-.19,0-.21,2.63-1.22,3.66-4.03,4.1-14.37,3.95-19.3,1.22-4.81-3.9-6.46-8.33-5.86-14.65,13.57-.77,28.19,1.01,41.63.07,1.91-.13,2.02-.53,3.3-1.05ZM640.82,856.76c2.33-1.61,6.71-2.94,8.39-4.8.55-.61,4.54-5.58,4.74-5.92.41-.68-.54-2.05.06-2.93.48-.7,1.96-.54,2.41-1.76,3.52-9.36,3.46-18.75,1.08-28.06-2.21-8.62-11.68-16.97-19.29-20.36-.36-.16-.38-1.35-1.67-1.78-12.44-4.2-24.7-.81-34.48,6.34-.26.19-4.46,4.37-4.66,4.63-1.71,2.22-7.28,14.79-7.32,17.18-.1,6.33,1.01,13.38.91,18.31-.01.56,1.46.58,1.83,1.38,1.07,2.31,1.25,5.56,1.38,5.84,1.78,3.67,10.67,10.48,14.31,12.48.73.4.83,1.89,1.78,2.36,5.04,2.49,16.39,1.42,22.26,1.84.46.03.35-1.54,1.18-1.77,1.52-.43,5.67-.3,6.46-.91,1.08-.84.53-2.01.62-2.07ZM690.64,793.26c-.6.67-1.74,2.52-2.93,3.91-2.07,2.41-2.8,4.7-5.39,5.83-.43,0-.32-.78-.47-.95v-8.8s-15.64,0-15.64,0c.52,20.35-.65,40.83-.06,61.17.05,1.78,1.02,3,1.05,3.31s-1.36,1.71-.98,1.94l16.45-.14c.14-.71,1.14-1.93,1.14-2.29v-35.17c0-1.77,2.93-6.83,2.93-9.28.29-.34.64-.69.98-.98,2.73.85,4.3-1.88,4.57-1.93,3.96-.75,8.86.88,13.01-1.01,1.38,1.89.94,9.13,1.15,9.58.12.24,1.49.27,1.8.86,1.04,1.99,3.32,6.28,4.85,7.63,5.14,4.53,18.54,6.2,25.43,7.84,4.63,1.1,9.12,5.33,4.58,9.02-2.02,1.64-11.73,2.13-14.12.96-2.91-1.42-2.82-5.58-3.32-6.39-1.18-1.9-18.22-1.55-21.31-.13-1.04,1.51,4.03,10.42,5.83,11.67.14.24,2.96,2.8,3.91,3.91.49.57.52,2.16,1.21,2.66.92.67,2.68.59,3.98,1.24,2.13,1.06-.6.45,3.6,1.43,9.49,2.21,18.84,2.96,28.4.07,2.89-.87,1.56-2.1,1.88-2.47,1.94-2.23,6.7-5.14,7.82-6.84,1.56-.53,2.35-.68,3.22-2.22,1.41-2.48,1.29-13.9.65-16.63-.15-.64-1.4-.58-1.81-1.48-.45-.98-.17-2.29-1.03-3.65-.53-.83-5.26-4.46-6.25-5-3.22-1.77-11.61-4.05-15.96-4.89-1.4-.27-5.94-.48-7.19-.9-11.46-3.88-5.71-11.75,5.8-9.69,6.57,1.18,3.81,2.62,5.2,5.13,2.8,5.09,14.46,2.65,19.31,2.18,2.17-11.1-4.9-14.04-11.42-20.55-13.22-4.4-32.41-4.9-42.01,7.16-.92,1.16-1.79,8.14-3.48,3.39-.94-2.63.9-11.17-2.67-12.95-3.36-1.68-10.4.82-12.71,3.43ZM778.56,798.15c-.14.1-.9,1.04-1.95,1.95-7.64,6.65-10.48,21.06-9.87,31.79.11,1.86,1.97,1.27,2.03,2.02,1.02,12.64,8.79,21.89,21.01,25.69,1.35.42,2.47,1.83,4.02,2.04,2.09.29,17.61-1.24,20.21-1.95,1.12-.3,1.03-2.06,1.68-2.5,1.18-.79,3.21,1.84,4.88-3.37v-.98c.26-.1,3.03-3.07,3.91-3.91,1.13-1.07,3.1-3.57,3.91-4.88.95-1.55,3.47-6.12.32-6.88-1.15-.28-14.22-.27-15.31.01s-.53,1.9-.64,1.98c-.44.33-1.85.36-3,1.37-1.03.91-1.59,2.96-2.11,3.27-1.8,1.06-10.79.76-12.82.07-1.14-.39-1.25-1.78-1.96-2.41-.54-.48-1.53-.27-1.59-.35-1.29-1.68-3.13-7.78-2.93-9.77h43.47c2.83,0,.42-16.69-.22-19.34-.51-2.12-4.42-8.99-5.68-10.92-3.84-5.84-10.4-7.86-16.32-9.86-.67-.23-.63-1.72-1.35-1.83-.87-.14-7.59-.2-8.67-.13-7.42.48-16.3,2.72-20.99,8.87ZM665.24,857.74v-64.48h-.98v64.48h.98Z"/>
  <path class="j" d="M218.8,795.21c5.43-1.15,10.82-1.84,16.31-1.7l9.09,3.66c4.35,4.94,3.84,8.44,6.84,1.95,2.66-.2,5.51-4.03,7.82-4.88,5.69-2.1,15.84-1.29,21.49.98,4.71,3.36,7.01,6.42,7.71,12.32,1.82,15.35-1.13,33.57.11,49.22-2.75,0-11,.58-12.7,0-1.24-12.67,1.65-28.36.06-40.64-.2-1.54-.8-1.73-1.03-2.34-.64-1.68-1.68-2.69-2.93-3.91-.47-.46-1.83-1.88-1.95-1.95,2.15-2.6.56-1.66-1.31-2.09-3.23-.74-6.05-.84-8.9-2.85-.69-.04-2.26,3.69-2.49,3.96-.49.57-1.24,1.08-1.95,1.95-.29.35-.71.63-.98.98-2.01-.27-2.23-.06-1.95,1.95-.14.2-.52,1.21-.98,1.95-.61.99-1.41,1.47-1.95,2.93-1.92,5.12-1.06,15.94-.99,21.99.02,1.65-.62,4.34.99,5.36,0,.33,0,.65,0,.98-3.04,3.66,2.04,10.46-3.91,11.72-.65.02-1.3-.03-1.95,0-.64-1.54-4.24-1.54-4.88,0-.62-.06-1.57.16-1.95,0l-.98-38.1c0-.33,0-.65,0-.98,0-1,1.39-.15,0-3.91-1.5-4.05-2.54-2.53-2.93-2.93-1.37-1.42-.83-4.32-5.36-3.93-.47-.19-.55-.49-.5-.96.02-.14.89-.49.99-.96-5.92-2.76-17.6,5.77-17.6,11.21v40.54h-14.65v-62.52h14.66c.05.97-.05,1.96,0,2.93-2.77-.39-2.77,1.37,0,.98-.05.64.11,1.38,0,1.95-.04.2-1.43.93-.98,1.95,1.82,1.78,2.95.2,3.91-.97,1.09-1.33,2.76-3.89,3.91-4.88l.98-.98c.28-.09.65.07.98,0Z"/>
  <path class="j" d="M452.28,796.19c.22.02,2.14,3,1.96-.97,1.89-.47,0,2.16,1.93,1.94-.1-3.44,9.78-4.75,12.38-4.81,4.65-.11,13.32,2.1,17.19,4.79,2.25,1.56,4.42,4.76,5.97,6.47.77.85,2.02,1.23,2.58,2.35,2.37,3.57,6.04,18.11,4.88,21.49-8.91.6-18.73-1.26-27.35.98h-.98c-2.98-2.46-7.55-.59-10.75,0-1.56.29-4.38-.86-4.88.98-.6,6.32,1.06,10.75,5.86,14.65,5.51,4.48,13.13,4.25,18.91-.14,1.33-1.01,1.95-3.16,3.23-3.61,3.1-1.08,9.45.44,13.03-.15l-3.9,8.79c-.89,1.36-1.97,2.59-2.93,3.91l-6.98,2.06c-2.36,4.89-10.89-.69-11.58,4.78-1.52.09-3.38.12-4.88,0,.56-3.11-1.55-1.63-3.35-1.97-6.61-1.25-9.82-2.95-15.21-6.82-1.62-1.87-3.59-3.74-4.88-5.86,2.2-3.67-1.46-5.44-1.75-6.1-.43-.97-1.26-18.44-.98-20.81.5-4.11,3-9.3,4.68-13.15.56-1.28.47-3.74,1.22-4.64.25-.3,6.21-4.19,6.59-4.16ZM457.16,809.87c-.23.35-1.32.63-1.73,1.65-.7,1.77-2.38,8.12.26,8.12h27.35c3.57,0-.55-9.01-1.48-10.75l-.96.98c-.29-.51-2.59-3.59-2.93-3.91-5.28-4.92-14.06-3.9-19.1.97-1.25,1.2-.98,2.28-1.41,2.94Z"/>
  <path class="j" d="M816.66,796.19c1.67.8,4.43,3.45,5.86,4.88,4.77,6.85,7.2,14.62,7.81,22.98.1,1.31.65,3.81-.97,4.37-5.6-1.63-13.86-1.64-19.54,0-1.63.02-3.26,0-4.88,0-3.3-1.45-15.32-1.82-17.58,0-.34.27-.87.48-.98.98-.63,2.96.47,5.24.98,7.82.03.17-.81.9-.41,1.94,3.13,8.09,15.37,10.12,22.58,6.08,3.42-1.91,3.86-5.09,4.2-5.09h13.68l-2.93,8.79c-.88.84-3.65,3.8-3.91,3.91-.58.23-2.17-.34-3.17.02-.93.34-.66,1.74-2.61,2.46-4.69,1.72-16.14,3.07-21.02,2.34l-11.29-3.85c-2.84-2.29-4.56-3.97-6.84-6.84.87-4.62-4.37-10.82-4.87-15.24-.31-2.79.98-5.05,1.05-7.72.07-2.81-2.72-8.73,1.86-9.3v-.95s-1.94-.49-1.94-.49c2.1-1.21,1.63-4.82,2.35-6.1.28-.51,4.9-6.97,5.46-7.67.83-1.03,16.23-7.12,18.06-7.31,3.25-.35,15.83,2.43,19.07,3.98ZM788.33,809.87c-.83,2.39-2.82,6.28-1.95,8.79.49,1.44,1.3.88,2.39,1.02,3.03.38,23.34.46,25.3-.19,4.44-1.46-.61-8.6-2.29-10.6-.25-.29-2.69-2.73-2.93-2.93-4.16-3.37-6.45-3.74-11.99-2.7-2.21.41-9.02,4.23-9.49,6.13-.14.57.98.43.96.48Z"/>
  <path class="j" d="M346.78,796.19c2.55,1.91,3.94,3.33,5.86,5.86,1,3.48,2.55,5.99,2.93,9.77v42.98c.06.51,1.36,1.66.98,1.94-.97.06-1.96-.04-2.93,0-.93-1.57-4.88-1.6-5.86,0-1.08-.05-4.7.19-4.89,0-.33-.33.25-5.51,0-6.85-.63.06-1.39-.11-1.95,0-.8.17-2.02,1.51-2.93,1.95-2.23,1.1-6.51,4.36-7.59,4.83-7.84,3.41-21.63,1.95-26.61-5.8.98-3.21-3.36-5.87-3.67-7.44-.37-1.88,1.67-6.22,1.62-7.79-.02-.67-1.7-.25-1.84-.42-1.49-1.84,1.45-2,1.58-2.24.73-1.25.63-2.82,1.42-3.99,1.35-2.02,4.52-2.25,4.79-5.48,8.49-6.1,25.38-.83,32.24-6.84,2.25-1.97,1.88-3.58.68-7.05s-1.62-2.65-3.61-3.69c.48-3.08-6.45-3.96-8.25-3.94-6.79.1-7.7,4.48-11.99,5.67s-9.37,1.51-12.97-.78c.52-3.28,6.23-5.59,6.94-6.48.61-.77.61-3.04.95-3.27.38-.26,1.81.79,2.41.66,1.16-.24.92-1.93,1.67-2.38,1.84-1.11,6.17-1.9,8.55-2.19,2.21-.27,3.46-1.01,6.19-.9,5.42.22,11.11,2.38,16.28,3.83ZM341.89,825.5l-14.05,1.09c-2.29,1.03-6.75,1-8.63,1.87-.25.12-4.21,4.22-2.72,4.85-3.24,4.54-2.59,9.43,1.95,12.7,5.84,4.21,11.63,1.57,17.54-1.08-.09-.39-.95-.8-.94-.87.19-.9,2.2-1.39,2.93-2.93h.98c3.26-1.9,3.72-9.5,3.93-13.2.08-1.49.43-1.7-1-2.43Z"/>
  <path class="j" d="M687.71,797.17c1.62-.15,4.96-.23,6.22-.93s.36-2.63.63-2.98c.08-.1,1.48.82,2.23.63,1.37-.35,2.41-2.02,4.07-1.61,2.9.71.26,12.05,1.5,14.64-3.2.13-9.73-1.2-12.51.38-.44.25.25,1.42-.68,1.6-1.07.2.31-2.42-1.45-1.96-1.32,3.8-6.7,9.85-7.3,13.55-.79,4.88-.31,18.89-.43,24.93-.06,2.99,3.35,10.44-1.56,11.34-1.24.23-9.43.28-10.26,0l-.08-60.14,3.01-2.38c15.06-.97,6.48,3.01,10.75,7.82.15.17.04.94.47.95,2.59-1.14,3.32-3.42,5.39-5.83Z"/>
  <path class="d" d="M518.71,769.82c.97-.02,1.96-.04,2.93,0,2.09.08,4.2-.2,6.3.08l.54.89c-1.62,1.02-.97,3.71-.99,5.36-.1,7.81-.08,15.66,0,23.47.02,1.65-.62,4.34.99,5.36.04.34-.09.74,0,.98.47,1.27.93.86,1.95.98v.98c-.17,0-1.03,1.28-2.27,1.05-.67-.12-.61-1.42-1.03-1.68-1-.61-2.41-.24-2.56-.35-.7-.54.97-1.84.98-1.95,1.62-1.01.98-3.71.99-5.36.08-7.48.89-18.47.03-25.47-.13-1.08.42-1.91-1.02-2.39-.64-.21-12.06-.21-12.7,0-1.44.48-.89,1.31-1.02,2.39-.57,4.61-.04,11.73.03,16.67.02,1.65-.63,4.34.99,5.36v.98c-1.62,1.01-.98,3.71-.99,5.36-.09,8.46-.1,16.97,0,25.43.02,1.65-.63,4.34.99,5.36,0,.65,0,1.3,0,1.95,0,1.1,0,2.85,0,3.91,0,.33,0,.65,0,.98-2.22,4.89-.41,11.34-.97,16.61.78.25.88-.96.97-.98,2.08-.35,11.33.44,11.73,0-.96-2.17.86-4.75.97-5.87,1.39,2.64.98-1.68.98-2.43,0-8.63,0-17.28,0-25.9.15-.28-.33-1.34.14-1.81.56-.43,1.41,0,1.81-.15-.15.06.14.75,0,.98-1.59,2.65,1.32,35.81,0,37.13h-18.57s0-87.93,0-87.93c2.92-.04,5.88.06,8.8,0ZM526.51,854.8c.49-4.06-1.44-4.06-.96,0h.96Z"/>
  <path class="l" d="M690.64,793.26c4.26-1.38,8.1-2.51,12.7-1.95v16.61c-6.92-.32-10.43-.52-15.63,3.91-.34.29-.69.64-.98.98-1.19,1.39-3.91,4.34-3.91,6.35v38.59h-15.63c-.03-.31-.99-1.52-1.05-3.31-.59-20.35.58-40.83.06-61.17h15.64s0,8.8,0,8.8c-4.27-4.8,4.32-8.78-10.75-7.82-1.3.08-2.62-.07-3.91,0,1.22,6.84-1.98,61.52.98,62.53.83.28,9.02.23,10.26,0,4.91-.9,1.5-8.35,1.56-11.34.12-6.04-.36-20.04.43-24.93.6-3.7,5.98-9.75,7.3-13.55,1.77-.46.38,2.16,1.45,1.96.92-.17.24-1.35.68-1.6,2.78-1.58,9.31-.25,12.51-.38-1.24-2.6,1.4-13.93-1.5-14.64-1.67-.41-2.71,1.26-4.07,1.61-.75.19-2.16-.73-2.23-.63-.27.35.63,2.27-.63,2.98s-4.59.78-6.22.93c1.2-1.39,2.33-3.23,2.93-3.91Z"/>
  <path class="n" d="M378.04,795.21c1.05-1.04,3.08-3.64,4.28-4.06,2.11-.75,12.69-1.68,14.98-1.53,3.33.21,7,3.47,8.34,3.99,2.15.83,4.12-1.48,3.67,1.6,1.98.04.25-2.98,2.55-3.78,1.31-.45,13.68-.43,15.49-.09,3.32.62,3.23,2.54,3.5,5.29,1.2,12.1,1.33,58.37-1.96,68.49-2.41,7.43-5.55,8.93-11.05,13.18-1.89,1.46-4.12,3.77-7.43,4.3s-18.43,2.19-20.98,1.51c-.75-.2-.64-1.96-1.21-1.97-1.9-.05-2.78,1.7-6.22.49-.83-.29-12.47-10.31-13.5-11.41-.15-.16-.32-2.78-.59-3.46-.11-.27-1.57-.26-1.6-.81-.02-.31.93-5.9,1.12-6.14,1.46-1.82,14.22-.93,16.94-.11,3.59,1.09,4.28,5.61,5.63,6.18.46.19,9.04.68,9.9.6,6.16-.55,12.99-6.64,10.51-13.24-1.29-3.42-2.15,0-4.12.97-3.72,1.81-9.87,3.93-14,3.48-1.85-.2-10.62-2.68-12.05-3.65-2.37-1.62-1.67-2.52-2.2-3.15,7.43,3.61,18.35,6.24,26.09,2.15,2.08-1.1,2.21-2.3,3.21-3.13.86-.71,1.39-1.48,1.95-1.95.69-.58,1.83-1.9,1.95-1.95.21-.1.63.04.98,0-.23,5.92,1.05,12.17-1.95,17.58-.59.82-1.36,2.43-1.95,2.93-7.2,2.07-13.34,3.08-20.51,0-.35-.28-.62-.69-.98-.98-.4-1.07-.4-3.66-1.63-3.95-4.23-1.01-12.19.82-16.93.05.65,2.06.63,5.01,1.5,6.83.59,1.24,2.1,1.53,2.4,1.96.4.58.27,1.89,1.37,2.98,9.94,9.75,36.33,10.05,46.49.93,1.06-.95,3.01-3.58,3.91-4.88,1.69-2.46,4.88-6.99,4.88-10.26v-66.92h-16.61s0,6.84,0,6.84c-.14.2.14,1.13-.95.96-.09-.6-.49-1.83-1-1.94-8.32-10.03-21.43-8.95-32.24-3.91ZM410.76,850.9v.98c.63-.33.63-.65,0-.98Z"/>
  <path class="n" d="M226.62,805.96c-.05.46.03.76.5.96,4.53-.39,3.99,2.51,5.36,3.93,1.18,1.51.7,3.31.98,4.88-1.17,12.72,1.58,28.18,0,40.56-.23,1.78.33,1.58-1.96,1.45v-38.59c0-.82,1.52-1.91.79-4.62-1.74-6.48-9.37-7.84-14.53-4.24-1.96,1.36-5.29,7.73-5.5,9.96-.89,9.47,1.66,22.81.73,33.13s-10.53,4.9-18.61,6.3c-.05-.64.05-1.31,0-1.95h16.61v-40.54c0-5.44,9.85-13.11,15.63-11.23Z"/>
  <path class="q" d="M583.18,769.82v87.92c-5.41.69-12.01-.5-17.58,0v-37.12h-37.12c.14-.23-.15-.92,0-.98h37.12c2.66,3.02.01,31.27.98,37.12h15.63v-85.97h-15.63c-.96,10.31,1.27,22.76.05,32.79-.27,2.25-.24,2.24-2,3.36-10.83-.93-23.62,1.25-34.19,0-1.02-.12-1.48.29-1.95-.98,10.65-.95,23.37,1.27,33.75.05.98-.12,3.37-.45,3.37-1.52v-34.68h17.58Z"/>
  <path class="n" d="M509.92,857.74l-.85-88.28c1-2.93,20.39-4.84,20.39.85v33.7h34.19v-33.7c0-5.64,8.72-2.44,11.28-2.41s5.77-1.59,7.76-1.06c1.11.29.21,2.52.49,2.98.08.13,2.35-.47,2.04,1.39l-.07,85.95c.11,1.06-1.26.49-1.97.58v-87.92h-17.58v34.68c0,1.07-2.38,1.4-3.37,1.52-10.38,1.22-23.1-1-33.75-.05-.09-.24.04-.63,0-.98-1.11-10.76.82-23.23,0-34.19l-.54-.89c-2.09-.28-4.21,0-6.3-.08-.14-1.47-2.79-1.47-2.93,0-2.92.06-5.88-.04-8.8,0v87.93Z"/>
  <path class="n" d="M690.64,793.26c2.31-2.61,9.35-5.1,12.71-3.43,3.57,1.79,1.73,10.32,2.67,12.95,1.69,4.75,2.55-2.24,3.48-3.39,9.61-12.06,28.8-11.56,42.01-7.16,6.51,6.51,13.59,9.46,11.42,20.55-4.85.46-16.51,2.9-19.31-2.18-1.38-2.51,1.38-3.96-5.2-5.13-11.51-2.06-17.26,5.8-5.8,9.69,1.25.42,5.78.63,7.19.9,4.34.84,12.74,3.12,15.96,4.89.99.54,5.72,4.17,6.25,5,.86,1.35.58,2.67,1.03,3.65.41.9,1.66.84,1.81,1.48.64,2.74.76,14.15-.65,16.63-.87,1.54-1.67,1.69-3.22,2.22,3.88-5.9,3.76-15.69,0-21.49-6.35-9.8-23.74-9.95-34.19-12.7-2.99-3.17-2.71-7.49,0-10.75,6.02-2.46,10.59-2.46,16.61,0,1.05,1.23,1.13,3.62,2.93,4.88,3.34,2.34,11.33.32,15.63.97.31-3.28-1.51-5.38-2.93-7.81-.66-1.14-2.04-2.94-2.93-3.91-8.73-9.45-30.46-11.15-40.05-2.93-1.16.99-2.78,3.58-3.91,4.88-.09.1-1.31-.36-2.02.62-4.83,6.66-1.92,19.45,5.01,24.22,7.5,5.17,25.38,5.85,29.95,9.61,2.18,1.8,1.59,6.04,1.25,8.53-.82.52-2.25,1.76-2.93,1.95-6.28,1.76-16.2,1.72-19.54-4.88-.33-.65.71-2.65-.54-2.98-3.75-1-11.73.84-16.07.05-1.23,1.25,1.92,10.03,2.94,11.73-1.8-1.24-6.87-10.16-5.83-11.67,3.1-1.42,20.13-1.77,21.31.13.5.81.41,4.97,3.32,6.39,2.39,1.16,12.09.68,14.12-.96,4.54-3.68.04-7.92-4.58-9.02-6.88-1.64-20.29-3.31-25.43-7.84-1.54-1.35-3.81-5.64-4.85-7.63-.31-.59-1.68-.62-1.8-.86-.21-.44.22-7.69-1.15-9.58-4.15,1.89-9.05.26-13.01,1.01-.27.05-1.84,2.78-4.57,1.93,5.2-4.43,8.71-4.23,15.63-3.91v-16.61c-4.6-.55-8.44.57-12.7,1.95Z"/>
  <path class="q" d="M181.68,769.82v87.92c-6.26.27-11.63.08-17.58-.98v-86.94c5.41-.69,12.01.5,17.58,0ZM180.7,770.79h-15.63v85.97h15.63v-85.97Z"/>
  <path class="n" d="M164.1,769.82v86.94c-.32-.06-1.79,1.73-1.96.49v-86.85c-.12-1.06,1.25-.49,1.96-.58Z"/>
  <path class="n" d="M778.56,798.15c4.69-6.15,13.57-8.38,20.99-8.87,1.09-.07,7.8,0,8.67.13.72.11.68,1.6,1.35,1.83,5.92,2,12.49,4.01,16.32,9.86,1.26,1.93,5.17,8.8,5.68,10.92.64,2.65,3.05,19.34.22,19.34h-43.47c-.2,1.98,1.64,8.09,2.93,9.77.06.08,1.05-.13,1.59.35.72.63.82,2.02,1.96,2.41,2.03.69,11.02.99,12.82-.07.53-.31,1.08-2.36,2.11-3.27,1.15-1.01,2.56-1.04,3-1.37.11-.08-.46-1.69.64-1.98s14.16-.29,15.31-.01c3.15.76.62,5.33-.32,6.88l.97-4.88c-2.81.6-15.29-.83-16.6,0-.2.12-.65,2.38-2.43,3.92-4.75,4.13-13.11,4.03-18.07.42-.91-.66-.8-2.19-1-2.38-.44-.43-3.14-1.26-3.91-3.91-.5-2.58-1.61-4.85-.98-7.82h44.94c.36-10.9-.89-20.41-8.8-28.33-1.43-1.43-4.19-4.09-5.86-4.88-10.56-8.44-27.65-5.69-38.1,1.95Z"/>
  <path class="q" d="M210.99,793.26c0,.33,0,.65,0,.98-.02,1.95.02,3.91,0,5.86h-.98c.11-.57-.05-1.31,0-1.95.02-.32.01-.66,0-.98-.04-.98.05-1.96,0-2.93h-14.66v62.52h14.65v-40.54c0-5.44,11.67-13.97,17.6-11.21-.1.47-.97.81-.99.96-5.78-1.88-15.63,5.79-15.63,11.23v40.54h-16.61c-.02-.32,0-.65,0-.98-.51-21.13.38-42.37,0-63.5h16.61Z"/>
  <path class="d" d="M324.31,791.31v1.95c-2.38.29-6.71,1.08-8.55,2.19-.75.45-.51,2.15-1.67,2.38-.6.12-2.03-.92-2.41-.66-.34.23-.34,2.5-.95,3.27-.71.89-6.41,3.2-6.94,6.48,3.6,2.28,8.88,1.91,12.97.78,4.29-1.2,5.2-5.57,11.99-5.67,1.8-.03,8.74.86,8.25,3.94-5.87-3.08-15.33-3.79-17.58,3.91-.35.29-.68.8-.98.98h-16.61c-.15-.15.13-.68,0-.98l.98-5.86c.75-1.08,7.14-8.34,7.82-8.79,2.12-1.41,10.92-3.64,13.68-3.91Z"/>
  <path class="n" d="M210.99,793.26h-16.61c.38,21.13-.51,42.37,0,63.5-2.66,1.74-1.84.95-1.95-1.45-.97-20.01.79-40.58-.08-60.65-.3-1.94,1.88-1.24,2.04-1.4.13-.13-.28-1.32.18-1.72.57-.49,13.21-.52,14.96-.23,3.76.63,1.47,1.76,1.47,1.95Z"/>
  <path class="q" d="M232.48,810.85c.39.4,1.43-1.12,2.93,2.93v3.91c0,.33,0,.65,0,.98.03,12.22,0,24.46-.02,36.68-.11.96.19,1.08,1,1.42.38.16,1.33-.06,1.95,0,1.48.15,3.36.06,4.88,0,.65-.03,1.3.02,1.95,0,1.3-.03,2.61.04,3.91,0,.03-3.9-.05-7.83,0-11.73,0-.33,0-.65,0-.98.09-9.1-.06-18.25,0-27.35.55-1.46,1.35-1.94,1.95-2.93l-.98,43.96h-15.63c-.69-12.64.89-26.16.07-38.7-.12-1.87-.94-2.66-1.05-3.3-.27-1.57.2-3.37-.98-4.88Z"/>
  <path class="d" d="M378.04,798.15c-1.67,1.53-2.78,4.74-5.85,4.9l1.94,1.93-2.77.47-3.72,11.9c.55,8.54-.57,15.41,3.66,23.22,1.04,1.92,5.2,1.18.88,3.5-1.48-1.79-2.26-1.46-3.69-4.62-5.45-12.04-2.81-26,2.71-37.39,1.89-1.64,4.01-3.21,5.86-4.88l.98.98Z"/>
  <path class="d" d="M816.66,796.19c-3.24-1.55-15.82-4.33-19.07-3.98-1.82.2-17.23,6.28-18.06,7.31-.56.7-5.17,7.16-5.46,7.67-.72,1.28-.25,4.88-2.35,6.1l1.94.49v.95c-4.58.57-1.79,6.49-1.86,9.3s-1.36,4.93-1.05,7.72c.5,4.42,5.74,10.61,4.87,15.24-8.03-10.11-8.07-25-4.39-37.11,1.21-3.98,4.34-5.93,5.37-9.78,1.05-.92,1.81-1.85,1.95-1.95,10.44-7.64,27.54-10.4,38.1-1.95Z"/>
  <path class="n" d="M640.82,856.76c-.09.06.46,1.23-.62,2.07-.79.61-4.94.48-6.46.91-.83.23-.72,1.81-1.18,1.77-5.88-.42-17.22.66-22.26-1.84-.95-.47-1.06-1.96-1.78-2.36-3.64-2-12.52-8.81-14.31-12.48-.13-.28-.31-3.53-1.38-5.84-.37-.8-1.84-.82-1.83-1.38.1-4.94-1.01-11.98-.91-18.31.04-2.39,5.61-14.97,7.32-17.18.2-.26,4.39-4.43,4.66-4.63,9.78-7.15,22.04-10.54,34.48-6.34,1.28.43,1.3,1.62,1.67,1.78,7.61,3.38,17.09,11.73,19.29,20.36,2.38,9.31,2.44,18.7-1.08,28.06-.46,1.21-1.94,1.05-2.41,1.76-.6.89.34,2.25-.06,2.93-.2.33-4.19,5.3-4.74,5.92-1.68,1.86-6.06,3.19-8.39,4.8.51-.27,2.14-3.22,2.93-3.91,1.96-1.7,5.33-4,6.84-5.86,5.68-7.03,8.01-19.8,4.88-28.33-.02-.32.03-.65,0-.98-.35-4.15-.82-9.35-4.88-11.72-1.62-3.41-1.21-3.15-3.91-5.86-10.25-10.31-26.8-11.03-39.08-3.91-4.82,2.8-8.94,6.53-10.75,11.72-6.7,9.88-6.73,27.65.98,37.12,1.52,2.96,2.12,2.89,3.91,4.88,9.03,10.12,27.15,13.13,39.08,6.84Z"/>
  <path class="n" d="M337.01,805.96c1.98,1.04,2.43.31,3.61,3.69s1.57,5.08-.68,7.05c-12.15,3.08-20.45.45-32.24,5.86-.88.4-2.11.24-3.18.98-6.94,4.8-7.93,19.13-3.96,26.15,1.01,1.78,2.18,1.1,2.25,1.2,1.01,1.46.65,2.92,2.56,4.77,6.14,5.97,27.12,5.31,31.63-1.84,1.72.45-1.81,4.18-2.02,4.32-4.73,3.2-21.4,3.34-26.52,1.5-.43-.15-6.02-5.55-6.63-6.31-2.06-2.59-4.74-7.88-5.3-11.1-.88-5.03,2.06-14.96,5.57-18.43,1.78-1.76,6.69-3.79,8.28-4.5.24-.11.26-1.46.91-1.6,4.37-.96,12.35-.38,17.29-1.12,3.99-.6,11.14-.59,10.37-5.74l-1.93,1.94c3.68-7.82-7.92-9.12-13.28-6.91-2.54,1.04-2.71,2.63-4.31,3.99,2.25-7.69,11.71-6.99,17.58-3.91Z"/>
  <path class="n" d="M489.4,853.83c-2.22,3.3-1.12,1.56-3.51,3.28-.52.37-.67,1.38-1.14,1.62-6.62,3.32-22.74,2.67-29.64.34-4.58-1.54-12.44-9.27-14.83-13.33-2.91-4.95-1.33-6.97-2.72-10.72-.32-.87-1.74-.74-1.9-1.41-.4-1.75,1.56-22.05,2.66-24.48.54-1.2,1.93-1.2,2.05-1.45.34-.73-.76-1.91-.27-2.73,1.01-1.69,7.25-7.62,9.31-9.19,7.97-6.04,11.58-5.86,21.88-5.39,1.74.08,3.31-1.21,5.65-.85,7.38,1.14,16.35,9.9,20.1,16.13,4.82,8,4.59,13.09,5.12,22.16-.25,1.19-1.51.41-2.01.61.37-7.19-.79-14.64-3.71-21.25-.6-1.36-1.9-1.78-2.16-2.2-1.33-2.19-2.43-5.48-5.18-7.51-9.61-7.09-27.3-9.34-36.82-1.28-.39-.04-6.34,3.86-6.59,4.16-.75.9-.66,3.36-1.22,4.64-2.24-.06-2.63,1.24-3.44,2.91-4.96,10.34-4.5,27.34,1.48,37.14,1.29,2.12,3.27,4,4.88,5.86.45.52.48,2.01,1.22,2.65,3.13,2.66,13.05,5.8,17.34,6.15,1.51.12,3.36.09,4.88,0,7.09-.42,12.45-2.54,18.56-5.86Z"/>
  <path class="n" d="M371.2,802.05c-5.53,11.38-8.16,25.35-2.71,37.39,1.43,3.16,2.21,2.83,3.69,4.62.68.82,1.28,2.34,1.95,2.93v.98c-.09-.04-.9,1.32-1.91.58-2.45-1.79-8.53-15.24-8.76-18.75-.42-6.67,1.09-15.52,3.13-22.09,1.51-4.88,2.26-3.61,4.61-5.65Z"/>
  <path class="q" d="M355.57,806.94c4.12,14.79-2.36,35.55,2.93,50.79-2.4-.37-15.94.56-16.56-.04-.28-.27-.88-6.47-1.02-7.76.56-.12,1.32.05,1.95,0,.25,1.33-.33,6.52,0,6.85.19.19,3.81-.06,4.89,0,1.89.1,3.97.1,5.86,0,.97-.05,1.96.05,2.93,0,.38-.29-.91-1.44-.98-1.94-1.58-13.28,1.36-29.5,0-42.98-.38-3.78-1.93-6.29-2.93-9.77,1.61,2.12,1.97,1.43,2.93,4.88Z"/>
  <path class="d" d="M782.47,853.83l11.29,3.85c4.88.73,16.33-.63,21.02-2.34,1.96-.72,1.69-2.12,2.61-2.46.99-.36,2.59.21,3.17-.02v.98c-9.98,5.72-19.82,7.61-31.02,4.16-4.63-1.43-3.98-1.67-7.08-4.16Z"/>
  <path class="l" d="M710.18,849.92c-1.02-1.69-4.16-10.48-2.94-11.73,4.34.79,12.32-1.05,16.07-.05,1.25.33.21,2.34.54,2.98l-.98.98c.22-5.14-10.74.27-14.64-2.93-.49.64,1.78,7.69,2.48,8.77,7.46,11.63,28.8,11.75,40.5,7.84v.98c-2.92.4-5.94,2.4-9.39,2.82-9.8,1.2-19.42-.57-27.73-5.75-.95-1.11-3.77-3.67-3.91-3.91Z"/>
  <path class="q" d="M500.15,828.43c-1.28.52-1.4.91-3.3,1.05-13.45.94-28.06-.84-41.63-.07.5-1.83,3.32-.69,4.88-.98,3.57,0,7.17,0,10.75,0h.98c7.46,0,17.99.92,24.97.04,1.09-.14,1.9.42,2.39-1.02,1.16-3.39-2.52-17.93-4.88-21.49v-.98c.26.42,1.55.83,2.16,2.2,2.92,6.61,4.08,14.06,3.71,21.25Z"/>
  <path class="n" d="M251.04,799.12c.32-.69-.27-2.1.88-3.48,1.25-1.5,3.78-1.53,5.39-2.49,1.13-.68,1.28-2.59,2.24-2.83,3.66-.93,17.06-.26,20.76,1.52,1.66.8,3.63,3.98,6.47,4.32.63.73-.61,1.81-.57,1.99-1.44-1.59-3.28-2.04-4.88-2.93-7.7-4.24-14.29-6.02-22.47-.98-2.31.85-5.15,4.68-7.82,4.88-2.99,6.49-2.49,2.99-6.84-1.95-.12-.14.36-1.21-.64-2-5.81-4.56-19.12-5.56-24.75.05-.33.07-.7-.09-.98,0-.51.16-.69.72-.98.98-1.15.99-2.82,3.55-3.91,4.88l-1.95-.98c.02-1.95-.02-3.91,0-5.86l1.94,3.9c-.21-2.61,2.43-2.26,3.92-3.42,3.08-2.4,2.09-4.71,8.45-5.03,5.48-.27,11.2.28,15.91,3.14,3.29,2,6.41,6.55,9.83,6.29Z"/>
  <path class="q" d="M274.48,813.78c.61,5.06-1.21,42.24.98,42.98,1.7.58,9.95,0,12.7,0h1.95c-.57,1.72-5.8.93-7.82.98-2.92.07-5.88-.05-8.8,0-.95-15.75,2.15-32.69-1.95-47.87,1.25,1.21,2.29,2.23,2.93,3.91Z"/>
  <rect class="n" x="664.27" y="793.26" width=".98" height="64.48"/>
  <path class="n" d="M287.18,800.1c2.43-2.67,1.67.09,2.06,1.35,3.17,10.44,2.83,41.06,1.9,52.92-.15,1.88-.57,3.54-1.03,5.33h-16.61v-.97c1.74-.82,7.2,1.32,8.79-.99,2.01-.05,7.25.75,7.82-.98-1.23-18.68,2.93-38.83-2.93-56.66Z"/>
  <path class="n" d="M776.61,800.1c-1.03,3.85-4.15,5.8-5.37,9.78-3.69,12.11-3.64,27,4.39,37.11,2.28,2.87,3.99,4.55,6.84,6.84,3.1,2.49,2.45,2.73,7.08,4.16,11.2,3.45,21.04,1.57,31.02-4.16-1.68,5.21-3.71,2.58-4.88,3.37-.66.44-.57,2.2-1.68,2.5-2.6.7-18.13,2.23-20.21,1.95-1.55-.21-2.67-1.62-4.02-2.04-12.21-3.81-19.99-13.05-21.01-25.69-.06-.75-1.92-.16-2.03-2.02-.61-10.73,2.23-25.14,9.87-31.79Z"/>
  <path class="l" d="M787.35,837.22c.77,2.65,3.47,3.47,3.91,3.91.2.2.09,1.73,1,2.38,4.96,3.61,13.31,3.71,18.07-.42,1.78-1.54,2.23-3.8,2.43-3.92,1.31-.82,13.79.61,16.6,0l-.97,4.88c-.8,1.31-2.78,3.81-3.91,4.88l2.93-8.79h-13.68c-.34,0-.78,3.17-4.2,5.09-7.21,4.04-19.45,2.01-22.58-6.08-.4-1.03.44-1.77.41-1.94Z"/>
  <path class="n" d="M751.21,856.76c.63-.08,1.32.06,1.95,0-.32.37,1,1.6-1.88,2.47-9.56,2.89-18.91,2.14-28.4-.07-4.19-.98-1.47-.37-3.6-1.43-1.3-.65-3.06-.57-3.98-1.24-.69-.51-.72-2.09-1.21-2.66,8.31,5.18,17.93,6.95,27.73,5.75,3.45-.42,6.46-2.42,9.39-2.82Z"/>
  <path class="n" d="M686.73,812.8c0,2.45-2.93,7.51-2.93,9.28v35.17c0,.36-1,1.58-1.14,2.29l-16.45.14c-.38-.23,1.01-1.64.98-1.94h15.63v-38.59c0-2.01,2.72-4.96,3.91-6.35Z"/>
  <path class="n" d="M310.63,795.21c1.33-1.48,3.39-2.35,5.2-3.1,10.65-4.45,26.79-3.14,35.41,4.98,1.82,1.71,2.2,4.4,2.63,4.76,1.13.96,4.26-.78,1.7,5.09-.96-3.46-1.32-2.77-2.93-4.88-1.92-2.53-3.31-3.95-5.86-5.86-6.69-5.01-14-5.7-22.47-4.88-2.75.26-11.55,2.49-13.68,3.91Z"/>
  <path class="l" d="M410.27,799.12c-.1-.02-.92,1.28-1.89.57-1.43-1.04-1.48-3.29-4.24-4.69-5.24-2.66-14.82-2.07-20.47-.67-.75.19-.73,1.38-1.25,1.62-1.97.89-1.2-.72-4.39,2.19l-.98-.98c.4-.37.57-1.55.98-1.95,10.81-5.04,23.92-6.12,32.24,3.91Z"/>
  <path class="d" d="M760.98,849.92c-1.12,1.7-5.88,4.61-7.82,6.84-.64.06-1.33-.08-1.95,0v-.98c2.32-.78,2.94-2.51,4.3-3.57.56-.43,1.79-.15,2.26-.62.35-.36,3.33-6,3.5-6.74,1.18-5.03,1.54-10.97-1.27-15.45l.98-.98c3.76,5.81,3.88,15.6,0,21.49Z"/>
  <path class="d" d="M489.4,852.85c-.15.21.15.75,0,.98-6.12,3.32-11.47,5.44-18.56,5.86.69-5.47,9.21.11,11.58-4.78l6.98-2.06Z"/>
  <path class="q" d="M461.07,844.06c4.93,2.73,15.27,2.88,19.3-1.22,1.01-1.03,1.03-3.66,1.22-3.66h16.61c-1.11,2.34-1.66,4.99-3.09,7.2-.9,1.39-2.48,2.12-2.78,2.57l3.9-8.79c-3.58.59-9.93-.93-13.03.15-1.28.45-1.9,2.59-3.23,3.61-5.78,4.39-13.39,4.62-18.91.14Z"/>
  <path class="l" d="M256.9,806.94c.23-.27,1.8-4.01,2.49-3.96,2.85,2.01,5.67,2.11,8.9,2.85,1.87.43,3.46-.51,1.31,2.09-5-2.96-7.73-2.57-12.7,0v-.98Z"/>
  <path class="n" d="M318.45,810.85c-2.43,1.41-14.83,1.81-16.61,0h16.61Z"/>
  <path class="d" d="M286.21,798.15c.26,1.23.87,1.62.98,1.95,5.86,17.83,1.7,37.98,2.93,56.66h-1.95c-1.24-15.66,1.71-33.88-.11-49.22-.7-5.9-3-8.96-7.71-12.32h.98c1.61.89,3.44,1.34,4.88,2.93Z"/>
  <path class="l" d="M407.34,850.9c-1.01.83-1.14,2.03-3.21,3.13-7.75,4.09-18.66,1.46-26.09-2.15-1.19-1.42-1.93-3.16-3.91-3.91v-.98c9.14,8.12,22.55,10.91,33.21,3.91Z"/>
  <path class="n" d="M301.84,809.87c-1.52-3.59-1.09-2.88.98-5.86l-.98,5.86Z"/>
  <path class="q" d="M253.97,809.87c-.7.92-1.71,1.62-1.95,1.95-.28-2.01-.06-2.23,1.95-1.95Z"/>
  <path class="q" d="M256.9,807.91c-.65.33-1.3.65-1.95.98.72-.87,1.47-1.38,1.95-1.95v.98Z"/>
  <path class="l" d="M303.79,850.9c4.97,7.75,18.77,9.22,26.61,5.8,1.08-.47,5.35-3.73,7.59-4.83-.35.63-.59,1.34-.98,1.95-4.52,7.16-25.49,7.81-31.63,1.84-1.91-1.86-1.55-3.31-2.56-4.77h.98Z"/>
  <path class="d" d="M218.8,795.21c5.64-5.61,18.94-4.61,24.75-.05,1.01.79.52,1.86.64,2l-9.09-3.66c-5.49-.14-10.88.55-16.31,1.7Z"/>
  <path class="k" d="M275.46,856.76c-2.19-.75-.36-37.92-.98-42.98.23.61.83.8,1.03,2.34,1.59,12.28-1.3,27.98-.06,40.64Z"/>
  <path class="k" d="M236.39,856.76c-.81-.34-1.11-.46-1-1.42.02-12.23.05-24.47.02-36.68l.98,38.1Z"/>
  <path class="l" d="M281.32,795.21h-.98c-5.65-2.27-15.8-3.08-21.49-.98,8.18-5.05,14.76-3.26,22.47.98Z"/>
  <path class="k" d="M249.09,844.06c-1.62-1.02-.98-3.71-.99-5.36-.06-6.05-.93-16.87.99-21.99-.06,9.1.09,18.25,0,27.35Z"/>
  <path class="k" d="M249.09,845.04c-.05,3.9.04,7.83,0,11.73-1.3.03-2.61-.04-3.91,0,5.95-1.27.87-8.06,3.91-11.72Z"/>
  <path class="d" d="M210.99,800.1l1.95.98c-.96,1.17-2.09,2.75-3.91.97-.45-1.02.94-1.74.98-1.95h.98Z"/>
  <path class="k" d="M243.22,856.76c-1.53.06-3.4.15-4.88,0,.64-1.54,4.24-1.54,4.88,0Z"/>
  <path class="k" d="M235.41,817.68v-3.91c1.39,3.76,0,2.91,0,3.91Z"/>
  <path class="d" d="M210.01,797.17c.01.32.02.66,0,.98-2.77.39-2.77-1.37,0-.98Z"/>
  <path class="d" d="M216.85,796.19c.29-.25.47-.81.98-.98l-.98.98Z"/>
  <path class="p" d="M477.68,805.96c.34.32,2.64,3.4,2.93,3.91,1.68,2.96,2.54,5.29,2.93,8.79h-26.86c-2.79,0-.47-7.35.49-8.79,4.12-6.16,14.2-7.1,20.51-3.91Z"/>
  <path class="d" d="M444.46,804.98c-1.68,3.85-4.18,9.04-4.68,13.15-.29,2.37.54,19.84.98,20.81.29.65,3.95,2.42,1.75,6.1-5.99-9.8-6.45-26.8-1.48-37.14.8-1.68,1.2-2.97,3.44-2.91Z"/>
  <path class="l" d="M452.28,796.19c9.52-8.06,27.21-5.81,36.82,1.28,2.76,2.03,3.85,5.32,5.18,7.51v.98c-.56-1.12-1.8-1.51-2.58-2.35-1.55-1.71-3.72-4.9-5.97-6.47-3.87-2.7-12.54-4.9-17.19-4.79-2.6.06-12.47,1.37-12.38,4.81-1.93.22-.04-2.42-1.93-1.94.18,3.97-1.74.99-1.96.97Z"/>
  <path class="q" d="M457.16,809.87c-.96,1.44-3.27,8.79-.49,8.79h26.86c-.39-3.5-1.25-5.84-2.93-8.79l.96-.98c.93,1.73,5.06,10.75,1.48,10.75h-27.35c-2.64,0-.97-6.35-.26-8.12.41-1.02,1.5-1.3,1.73-1.65Z"/>
  <path class="k" d="M499.17,827.45c-.49,1.44-1.3.88-2.39,1.02-6.98.87-17.51-.04-24.97-.04,8.63-2.24,18.44-.37,27.35-.98Z"/>
  <path class="l" d="M477.68,805.96c-6.31-3.2-16.39-2.25-20.51,3.91.43-.66.17-1.74,1.41-2.94,5.04-4.87,13.82-5.89,19.1-.97Z"/>
  <path class="l" d="M447.4,850.9c5.39,3.87,8.6,5.57,15.21,6.82,1.8.34,3.91-1.14,3.35,1.97-4.29-.35-14.21-3.48-17.34-6.15-.74-.63-.77-2.13-1.22-2.65Z"/>
  <path class="k" d="M470.84,828.43c-3.57,0-7.17,0-10.75,0,3.19-.59,7.76-2.46,10.75,0Z"/>
  <path class="p" d="M808.85,805.96c.25.2,2.68,2.64,2.93,2.93-.46,2.45,4.81,8.61,1.33,9.63-6.27,1.82-19.61-1.06-26.73.14-.86-2.52,1.12-6.4,1.95-8.79,5.37-6.62,12.84-7.14,20.51-3.91Z"/>
  <path class="q" d="M822.52,801.08c7.91,7.92,9.16,17.43,8.8,28.34h-44.94c.1-.5.63-.71.98-.98h17.58c1.63,0,3.26.02,4.88,0,3.91-.05,17.2.81,19.54,0,1.62-.56,1.07-3.07.97-4.37-.61-8.36-3.04-16.13-7.81-22.98Z"/>
  <path class="q" d="M786.38,818.66c7.12-1.2,20.46,1.68,26.73-.14,3.48-1.01-1.78-7.18-1.33-9.63,1.68,2,6.73,9.14,2.29,10.6-1.96.65-22.27.57-25.3.19-1.09-.14-1.9.42-2.39-1.02Z"/>
  <path class="k" d="M829.36,828.43c-2.34.81-15.62-.05-19.54,0,5.68-1.64,13.94-1.63,19.54,0Z"/>
  <path class="k" d="M804.94,828.43h-17.58c2.27-1.82,14.28-1.45,17.58,0Z"/>
  <path class="l" d="M808.85,805.96c-7.68-3.23-15.14-2.71-20.51,3.91.02-.05-1.1.08-.96-.48.47-1.9,7.28-5.71,9.49-6.13,5.54-1.04,7.83-.67,11.99,2.7Z"/>
  <path class="p" d="M337.98,841.13c-.73,1.54-2.74,2.03-2.93,2.93-5.14,3.07-10.84,3.95-16.61,1.95-4.54-3.27-5.19-8.16-1.95-12.7.79-1.11.77-1.17,1.95-1.95l21.48-3.91c.76,1.06-1.19,12.09-1.94,13.68Z"/>
  <path class="d" d="M307.7,822.57v.98c-.27,3.23-3.44,3.46-4.79,5.48-.78,1.17-.69,2.74-1.42,3.99-.14.24-3.07.4-1.58,2.24.14.17,1.82-.25,1.84.42.04,1.57-1.99,5.91-1.62,7.79.31,1.57,4.64,4.23,3.67,7.44h-.98c-.07-.1-1.25.58-2.25-1.2-3.97-7.02-2.98-21.35,3.96-26.15,1.07-.74,2.31-.58,3.18-.98Z"/>
  <path class="k" d="M355.57,854.81v-42.98c1.36,13.48-1.58,29.7,0,42.98Z"/>
  <path class="l" d="M339.94,816.71c-6.86,6.01-23.75.74-32.24,6.84v-.98c11.79-5.41,20.08-2.78,32.24-5.86Z"/>
  <path class="d" d="M341.89,825.5c-.14-.07-.73-.04-.98,0-1.31.22-2.93,1.39-4.65,1.68-5.78.99-12.9.91-17.81,4.18-1.19.79-1.16.84-1.95,1.95-1.49-.64,2.47-4.74,2.72-4.85,1.88-.87,6.34-.84,8.63-1.87l14.05-1.09Z"/>
  <path class="l" d="M346.78,796.19c-5.17-1.45-10.86-3.61-16.28-3.83-2.73-.11-3.99.63-6.19.9v-1.95c8.47-.81,15.77-.13,22.47,4.88Z"/>
  <path class="l" d="M338.96,841.13c2.47-5.14,2.07-10.05,1.95-15.63.24-.04.84-.07.98,0,1.43.73,1.08.94,1,2.43-.2,3.69-.67,11.3-3.93,13.2Z"/>
  <path class="q" d="M335.05,844.06c-.02.07.85.48.94.87-5.91,2.65-11.7,5.29-17.54,1.08,5.77,1.99,11.47,1.11,16.61-1.95Z"/>
  <path class="k" d="M353.61,856.76c-1.89.1-3.97.1-5.86,0,.98-1.6,4.94-1.57,5.86,0Z"/>
  <path class="n" d="M338.96,841.13h-.98c.75-1.59,2.7-12.62,1.94-13.68l-21.48,3.91c4.91-3.26,12.03-3.19,17.81-4.18,1.73-.29,3.34-1.46,4.65-1.68.11,5.58.51,10.49-1.95,15.63Z"/>
  <path class="k" d="M671.1,794.24l-3.01,2.38.08,60.14c-2.96-1.01.24-55.69-.98-62.53,1.29-.07,2.62.09,3.91,0Z"/>
  <path class="j" d="M564.62,806.94c1.76-1.12,1.73-1.11,2-3.36,1.22-10.03-1.01-22.48-.05-32.79h15.63v85.97h-15.63c-.96-5.85,1.68-34.1-.98-37.12-.92-1.04-1-.9-2.35-1.03-8.1-.79-23.21-.61-31.47-.02-1.93.14-2.08.6-3.3,1.05-.4.15-1.25-.28-1.81.15-.47.47,0,1.53-.14,1.81-.06.11-.95-.1-.98,0l-.96.49.96.49c-.94,8.58.86,18.71,0,27.35-.11,1.12-1.93,3.69-.97,5.87-.39.43-9.65-.35-11.73,0-.03-5.2.04-10.43,0-15.63,0-.33,0-.65,0-.98v-3.91c0-.65,0-1.3,0-1.95.02-12.03,0-24.11,0-36.15v-25.4c.64-.21,12.06-.21,12.7,0-.93,10.48,1.26,23.01,0,33.21-.01.11-1.68,1.4-.98,1.95.15.11,1.55-.26,2.56.35.43.26.36,1.55,1.03,1.68,1.24.23,2.1-1.04,2.27-1.05,9.93-.4,22.47,1.21,31.85.05,1.45-.18,1.42-.44,2.34-1.03Z"/>
  <path class="k" d="M512.85,833.31c-1.62-1.02-.97-3.71-.99-5.36-.1-8.46-.09-16.97,0-25.43.02-1.65-.62-4.34.99-5.36,0,12.03.02,24.11,0,36.15Z"/>
  <path class="k" d="M528.48,804.98c-1.62-1.01-.98-3.71-.99-5.36-.08-7.81-.1-15.66,0-23.47.02-1.65-.63-4.34.99-5.36.82,10.96-1.11,23.43,0,34.19Z"/>
  <path class="k" d="M564.62,806.94c-.92.59-.89.85-2.34,1.03-9.39,1.16-21.92-.45-31.85-.05v-.98c10.57,1.25,23.36-.93,34.19,0Z"/>
  <path class="k" d="M525.55,804.98c1.26-10.2-.93-22.74,0-33.21,1.44.48.89,1.31,1.02,2.39.87,6.99.05,17.99-.03,25.47-.02,1.65.62,4.35-.99,5.36Z"/>
  <path class="k" d="M526.52,821.59c0,8.62,0,17.26,0,25.9,0,.75.42,5.07-.98,2.43.86-8.64-.94-18.78,0-27.35.04-.33-.07-.69,0-.98.02-.1.92.11.98,0Z"/>
  <path class="k" d="M512.85,796.19c-1.62-1.02-.97-3.71-.99-5.36-.06-4.94-.6-12.06-.03-16.67.13-1.08-.42-1.91,1.02-2.39v24.42Z"/>
  <path class="k" d="M512.85,855.78c-.09.01-.18,1.23-.97.98.55-5.26-1.25-11.72.97-16.61.04,5.2-.03,10.43,0,15.63Z"/>
  <path class="k" d="M512.85,839.17c0-1.06,0-2.8,0-3.91v3.91Z"/>
  <path class="p" d="M521.64,769.82c-.97-.04-1.96-.02-2.93,0,.14-1.47,2.79-1.47,2.93,0Z"/>
  <path class="k" d="M526.51,854.8h-.96c-.49-4.06,1.44-4.06.96,0Z"/>
  <path class="j" d="M410.27,799.12c.52.11.91,1.34,1,1.94,1.1.17.82-.76.95-.96,1.69-2.5.7-5.58.97-5.87.5-.53,12.47.41,14.66,0v63.01c0,3.07-3.21,9.79-3.91,13.19-.9,1.3-2.85,3.93-3.91,4.88-3.77-1.7-6.77,2.02-10.07,3.13-5.86,1.97-19.67,1.31-25.5.77-.76-.07-.41-1.84-1.02-1.85-1.75-.02-2.88,2.93-2.49-2.05l-1.93,1.94c-.23-2.6-3.36-3.21-4.98-5.37-1.51-2.02.75-.36-1.87-2.44-1.95-1.54-2.1-3.46-1.96-5.86,3.9.66,10.54-.92,13.96-.02.52.14,1.55,2.06,2.65,2.95.35.29.62.69.98.98,5.37,4.3,15.08,4.58,20.51,0,.6-.5,1.36-2.11,1.95-2.93.31-.43,1.77-.69,2.4-1.96,1.25-2.56,2.16-12.35,1.53-15.03.14-.97-1.34-.67-1.97-.59-.35.04-.77-.1-.98,0-2.08-.23-2.19-.12-1.95,1.95-.56.47-1.09,1.25-1.95,1.95-10.66,7-24.07,4.21-33.21-3.91-.67-.6-1.27-2.11-1.95-2.93,4.32-2.32.16-1.58-.88-3.5-4.23-7.81-3.11-14.68-3.66-23.22l3.72-11.9,2.77-.47-1.94-1.93c3.07-.16,4.18-3.37,5.85-4.9,3.18-2.91,2.42-1.3,4.39-2.19.52-.24.5-1.43,1.25-1.62,5.65-1.4,15.22-1.99,20.47.67,2.77,1.4,2.81,3.65,4.24,4.69.98.71,1.8-.59,1.89-.57ZM393.67,805.96c-1.58.37-2.48.12-4.25,1.1s-2.4,2.42-3.56,3.79c-5.51,6.52-5.96,16.79-2.85,24.63.18.46,2.16,2.04,2.85,2.73.92.91,2.76,2.18,3.91,2.93.51.33.69,1.38,2.33,2.03,2.57,1.02,11.37,1.24,13.17-.25.49-.4,0-1.61.14-1.78.32-.1.76.13.98,0-.22.22.15,1,.49.98,1.07-.07-.03-1.44-.49-.98.04-.02.06-.73,0-.98.33-.29.82-.9.98-.98.46-.22,2.06.46,2.73-.16.78-.72,3.91-10.23,4.09-12.06.61-6.31-.14-12.46-4.87-17.09-.45-.44-1.84-1.88-1.95-1.95-.65-4.39-7.02-4.36-10.76-4.47-2.39-.07-2.74-.12-2.91,2.52Z"/>
  <path class="q" d="M412.23,800.1v-6.84s16.61,0,16.61,0v66.92c0,3.27-3.2,7.8-4.88,10.26.69-3.39,3.91-10.12,3.91-13.19v-63.01c-2.19.4-14.16-.54-14.66,0-.27.29.71,3.37-.97,5.87Z"/>
  <path class="d" d="M372.17,869.46c2.62,2.08.36.42,1.87,2.44,1.61,2.16,4.75,2.76,4.98,5.37l1.93-1.94c-.39,4.98.74,2.03,2.49,2.05.62,0,.26,1.78,1.02,1.85,5.83.53,19.64,1.2,25.5-.77,3.29-1.11,6.3-4.83,10.07-3.13-10.17,9.12-36.56,8.82-46.49-.93-1.11-1.09-.97-2.4-1.37-2.98v-1.95Z"/>
  <path class="q" d="M372.17,871.41c-.3-.43-1.81-.72-2.4-1.96-.88-1.82-.85-4.77-1.5-6.83,4.74.77,12.7-1.06,16.93-.05,1.22.29,1.23,2.88,1.63,3.95-1.1-.89-2.12-2.81-2.65-2.95-3.42-.9-10.07.68-13.96.02-.14,2.4,0,4.31,1.96,5.86v1.95Z"/>
  <path class="d" d="M412.23,846.99c.63-.07,2.11-.37,1.97.59.63,2.68-.28,12.46-1.53,15.03-.62,1.28-2.09,1.54-2.4,1.96,3.01-5.41,1.73-11.66,1.95-17.58Z"/>
  <path class="q" d="M408.32,867.5c-5.44,4.58-15.15,4.3-20.51,0,7.17,3.08,13.31,2.07,20.51,0Z"/>
  <path class="d" d="M411.25,846.99c-.13.06-1.27,1.37-1.95,1.95-.23-2.08-.12-2.19,1.95-1.95Z"/>
  <path class="p" d="M410.76,850.9c.63.33.63.65,0,.98v-.98Z"/>
  <path class="j" d="M716.04,796.19l19.06-3.97c8.01.59,14.29,2.86,20.99,6.91.89.97,2.27,2.77,2.93,3.91l.98,6.84h-13.68c-1.8-1.26-1.88-3.65-2.93-4.88-3.56-4.17-13.12-4.2-16.61,0-2.71,3.26-2.99,7.58,0,10.75,3.99,4.23,20.91,4.4,27.12,7.58.78.4,5.51,5.16,6.09,6.1,2.81,4.48,2.45,10.41,1.27,15.45-.17.74-3.14,6.38-3.5,6.74-.47.47-1.7.19-2.26.62-1.36,1.06-1.98,2.79-4.3,3.57-11.69,3.92-33.04,3.79-40.5-7.84-.69-1.08-2.96-8.13-2.48-8.77,3.91,3.2,14.87-2.21,14.64,2.93-.02.38-1.23,1.52-.93,1.86s6.91,4.26,7.66,4.43c3.08.7,8.81-.37,12.36.05,2.98.35,1.11-.31,1.43-2.43.68-.19,2.11-1.43,2.93-1.95.9-.58,3.33-.05,2.42-4.03-2.19-9.54-20.32-9.72-27.61-12.28-1.1-.38-1.19-1.83-1.41-1.93-.66-.32-1.93.4-2.96-.24-.36-.23-5.78-5.64-5.98-6.01-3.11-5.72-1.03-12.92,1.35-18.49,1.13-1.31,2.75-3.89,3.91-4.88Z"/>
  <path class="l" d="M756.09,799.12c-6.7-4.05-12.98-6.31-20.99-6.91l-19.06,3.97c9.6-8.21,31.32-6.51,40.05,2.93Z"/>
  <path class="l" d="M760.98,828.43l-.98.98c-.58-.93-5.31-5.69-6.09-6.1-6.21-3.18-23.13-3.35-27.12-7.58,10.45,2.75,27.85,2.9,34.19,12.7Z"/>
  <path class="q" d="M759.03,803.03c1.42,2.43,3.24,4.53,2.93,7.81-4.29-.65-12.29,1.37-15.63-.97h13.68s-.98-6.84-.98-6.84Z"/>
  <path class="q" d="M743.39,804.98c-6.02-2.46-10.59-2.46-16.61,0,3.48-4.2,13.04-4.17,16.61,0Z"/>
  <rect class="j" x="165.07" y="770.79" width="15.63" height="85.97"/>
  <path class="l" d="M712.13,801.08c-2.38,5.57-4.45,12.77-1.35,18.49.2.37,5.62,5.79,5.98,6.01,1.03.65,2.3-.07,2.96.24.21.1.31,1.55,1.41,1.93,7.29,2.56,25.42,2.74,27.61,12.28.91,3.98-1.52,3.45-2.42,4.03.35-2.49.93-6.73-1.25-8.53-4.56-3.76-22.44-4.44-29.95-9.61-6.93-4.77-9.84-17.57-5.01-24.22.71-.98,1.93-.52,2.02-.62Z"/>
  <path class="d" d="M743.39,846.01c-.32,2.13,1.55,2.78-1.43,2.43-3.55-.42-9.28.65-12.36-.05-.75-.17-7.37-4.09-7.66-4.43s.91-1.49.93-1.86l.98-.98c3.33,6.61,13.25,6.65,19.54,4.88Z"/>
  <path class="j" d="M608.58,796.19c3.91-.31,7.3-2.81,11.28-2.96,3.41-.13,5.47,1.63,6.8,1.63,3.27-.02,8.63-2.81,12.01,2.21l8.02,3.02c2.69,2.71,2.29,2.45,3.91,5.86,1.81,3.8,2.69,8.11,4.88,11.72.03.32-.02.65,0,.98.22,3.99-.02,8.09-.12,12.09l-4.76,16.24c-1.5,1.86-4.88,4.16-6.84,5.86-9.75,5.6-20.52,6.91-31.23,3.39-4.11-1.35-6.9-4.59-10.78-6.32-1.78-2-2.39-1.92-3.91-4.88-5.5-10.75-4.89-25.87-.98-37.12,3.23-4.77,6.92-8.54,11.72-11.72ZM639.84,833.31c2.53-7.1,2.66-11.43-.49-18.56-3.42-7.77-14.72-14.05-22.36-8.87-1.02.69-.47,1.88-.6,2.03-.67.74-2.75,2.65-2.93,2.93-1.41-1.38-3.85,3.59-4.09,4.22-2.51,6.5-1.98,20.84,2.04,26.42.81,1.12,5.49,1.15,4.99,5.5l1.93-1.94c-.3,4.91.41,1.99,2.52,2.01,3.18.03,4.7,1.65,8.46-.14.78-.37.92-1.5,1.49-1.84,2.38-1.4,6.07-1.16,5.13-4.93.23-.13.67.11.98,0,1.5-.55,3.98-.49,0-.98.75-1.99,2.23-3.9,2.93-5.86Z"/>
  <path class="l" d="M650.59,846.99l4.76-16.24c.1-4,.34-8.11.12-12.09,3.12,8.53.79,21.3-4.88,28.33Z"/>
  <path class="l" d="M655.47,817.68c-2.19-3.61-3.08-7.92-4.88-11.72,4.07,2.37,4.53,7.57,4.88,11.72Z"/>
  <path class="l" d="M601.74,849.92c3.88,1.73,6.67,4.97,10.78,6.32,10.71,3.51,21.48,2.2,31.23-3.39-.79.68-2.42,3.64-2.93,3.91-11.93,6.3-30.04,3.28-39.08-6.84Z"/>
  <path class="d" d="M597.84,845.04c-7.71-9.47-7.67-27.25-.98-37.12-3.91,11.26-4.52,26.37.98,37.12Z"/>
  <path class="d" d="M646.68,800.1l-8.02-3.02c-3.38-5.02-8.74-2.23-12.01-2.21-1.33,0-3.39-1.75-6.8-1.63-3.98.15-7.37,2.65-11.28,2.96h-.98c12.27-7.13,28.83-6.4,39.08,3.91Z"/>
  <path class="k" d="M565.6,819.64h-37.12c1.22-.45,1.37-.91,3.3-1.05,8.26-.59,23.37-.77,31.47.02,1.34.13,1.43,0,2.35,1.03Z"/>
  <path class="l" d="M608.58,796.19c-4.8,3.18-8.49,6.95-11.72,11.72,1.81-5.19,5.92-8.92,10.75-11.72h.98Z"/>
  <path class="d" d="M525.55,822.57l-.96-.49.96-.49c-.07.29.04.64,0,.98Z"/>
  <path class="p" d="M389.76,840.15c-.7-3.35-3.56-4.08-4.47-7.74-3.5-14.2,1.32-29.62,18.87-24.74,9.63,7.92,8.63,20.21,3.18,30.52v.98c-.16.08-.65.68-.98.98-.51-2.27-6.73,1.99-8.31,1.06l-7.32-1.06h-.98Z"/>
  <path class="n" d="M407.34,807.91c.12.07,1.5,1.51,1.95,1.95,4.69,9.3,5.93,20.45-1.95,28.33,5.44-10.32,6.45-22.6-3.18-30.52-17.56-4.89-22.37,10.54-18.87,24.74.9,3.67,3.77,4.4,4.47,7.74v.98c-1.15-.75-2.99-2.02-3.91-2.93-3.45-9.43-4.57-18.02,0-27.35,1.16-1.37,1.76-2.8,3.56-3.79s2.67-.73,4.25-1.1c5.14-1.2,9.05-.98,13.68,1.95Z"/>
  <path class="l" d="M385.85,838.2c-.7-.69-2.67-2.27-2.85-2.73-3.11-7.84-2.66-18.11,2.85-24.63-4.57,9.33-3.45,17.92,0,27.35Z"/>
  <path class="l" d="M409.3,809.87c4.72,4.62,5.48,10.77,4.87,17.09-.18,1.84-3.31,11.34-4.09,12.06-.67.62-2.27-.06-2.73.16v-.98c7.88-7.88,6.64-19.03,1.95-28.33Z"/>
  <path class="d" d="M405.39,841.13c-.14.17.36,1.38-.14,1.78-1.8,1.48-10.6,1.26-13.17.25-1.64-.65-1.82-1.7-2.33-2.03v-.98h.98c3.26,3.25,10.6,2.28,14.65.98Z"/>
  <path class="l" d="M393.67,805.96c.17-2.64.52-2.59,2.91-2.52,3.74.11,10.11.09,10.76,4.47-4.63-2.94-8.53-3.15-13.68-1.95Z"/>
  <path class="l" d="M406.37,841.13c-.21.13-.65-.1-.98,0,.31-.38.61-.65.98-.98.06.25.04.95,0,.98Z"/>
  <path class="d" d="M406.37,841.13c.46-.46,1.56.9.49.98-.34.02-.71-.76-.49-.98Z"/>
  <path class="n" d="M633.98,809.87c-30.13-16.32-31.29,42.34-4.17,33.44,10.83-3.56,10.38-24.21,5.15-32.46,6.62,5.63,4.52,14.89,4.88,22.47-.7,1.97-2.18,3.87-2.93,5.86v.98c-.31.11-.75-.13-.98,0-3.96,2.24-3.28,4.41-9.23,4.93-18.83,1.63-21.26-21.76-13.24-34.24.18-.28,2.26-2.19,2.93-2.93,6.27-2.62,12.74-3.62,17.58,1.95Z"/>
  <path class="d" d="M613.47,810.85c-8.02,12.47-5.59,35.87,13.24,34.24,5.95-.52,5.27-2.69,9.23-4.93.94,3.77-2.75,3.53-5.13,4.93-.57.33-.71,1.46-1.49,1.84-3.76,1.79-5.27.17-8.46.14-2.1-.02-2.81,2.89-2.52-2.01l-1.93,1.94c.51-4.35-4.18-4.37-4.99-5.5-4.02-5.58-4.55-19.92-2.04-26.42.24-.62,2.68-5.59,4.09-4.22Z"/>
  <path class="l" d="M639.84,833.31c-.37-7.58,1.74-16.84-4.88-22.47-.23-.37-.69-.64-.98-.98-4.85-5.58-11.31-4.58-17.58-1.95.13-.15-.41-1.34.6-2.03,7.64-5.18,18.93,1.1,22.36,8.87,3.14,7.13,3.02,11.46.49,18.56Z"/>
  <path class="d" d="M636.91,839.17c3.98.49,1.5.43,0,.98v-.98Z"/>
  <g>
    <path class="e" d="M214.89,550.5c.02-.47,2.72-5.55-1.01-2.96-1.53,1.07-12.57,17.96-13.64,17.12-11.85-43.85-8.33-90.54,11.69-131.4-4.71,1.77-31.78,9.46-33.2,2.92-.32-1.47,14.21-17.46,16.43-20.67,11.97-17.34,15.62-39.63,22.9-59.16,8.41-22.57,20.58-43.11,36.87-60.82-5.86-.46-11.27-.62-16.87-2.66-16.07-5.85-1.3-9.15,6.44-14.61,28.92-20.41,47.75-53.29,75.97-75.45,26.62-20.9,60.58-33.81,94.54-34.9,7.12-22.71,18.44-47.46,37.25-62.89,12.07-9.9,19.52-12.3,26.88,3.43,7.65,16.32,8.83,37.25,13.32,54.58.85.54,17.88,1.86,20.12,1.84,1.35-.01,1.97-.7,2.73-1.67,12.03-16.23,24.81-33.56,40.05-46.91,5.61-4.92,21.19-19.12,28.36-11.81,3.11,3.17,5.21,13.86,6.01,18.42,2.92,16.72,3.02,34.35-.17,51.04-1.68,8.79-5.26,17.01-7.26,25.68,7.76,6.86,19.59,13.63,29.95,15.06,7.89,1.09,16.7-3.04,11.7,9.28-2.35,5.8-9.01,10.97-14.1,14.23-1.83,1.17-5.41,2.19-6.53,3.06-2.4,1.85,2.48,3.07,4.2,4.55,9.05,7.77,19.21,18.24,22.82,29.92,1.62,5.24,1.2,12.91,3.61,16.91,4.93,8.19,15.56,15.82,21.02,23.92l54.86,56.58c2.46.4,10.23-9.39,12.05-11.19,11.94-11.85,23.56-24.05,36.08-35.31-6.91-27.61-1.55-55.74,17.66-77.03,20.09-22.26,58.01-30.71,68.89-60.06,1.6-4.33,3.64-19.66,6.36-21.07,4.59-2.37,17.51,14.76,19.73,18.45,18.23,30.27,22.42,78.46,10.57,111.57-12.11,33.83-42.98,55.23-77.9,60.33l-62.86,81.23c-1.03,21.7-8.45,42.52-24.81,57.25-2.26,2.04-12.53,8.36-12.96,9.02-.6.94-.34,2.94-1.02,4.33-12.03,24.83-27.17,32.24-54.48,31.59-3.66-.09-7.46-2.21-11.18-.51-27.22,28.44-55.46,55.93-84.49,82.54-1.99,4.69,1.59,12.98,2.29,18.19,3.76,28.2,4,56.5.02,84.74-1.33,9.45-3.28,10.44-13.09,11.33-20.16,1.85-49.87-3.73-69.84-8.27-57.19-13-116.08-40.02-165.98-70.43-28.41-17.32-89.96-53.48-89.96-90.77,0-6.13-.31-12.46,0-18.56ZM468.89,228.62c.94-10.42,6.67-20.64,7.7-30.89,1.68-16.79-1.03-34.88-4.09-51.35-1.03-5.51-3.47-21.53-5.74-25.52-2.09-3.68-8.46,2.95-8.61,6.17-1.85,1.07-1.99,2.13-2.93,2.93-12.47,10.57-24.12,41.02-28.04,57.44-4.71,19.72-5.74,38.97-1.26,58.82-.54,0-1.85-.1-1.95,0-2.16-2.99-6.19-3.68-8.79-6.36-6.97-7.21-7.87-20.36-6.86-29.79-3.08,1.76-5.93,3.76-8.78,5.86-5.01,3.69-8.1,6.39-11.72,10.75-2.46-.17-2.8,1.81-3.91,2.93-.32.33-.65.66-.98.98-38.06,37.29-59.3,83.04-72.22,134.39-18.22,72.39-13.71,150.58-50.87,217.29-3.09,5.54-7.01,10.96-10.73,16.12,5.14,3.95,9.96,8.29,15.61,11.23,21.9,17.6,45.8,33.18,70.34,46.89,2.26,1.26,5.18,2.48,7.82,3.91,50.53,27.39,115.58,55.14,173.41,59.58,2.84.22,20.37,1.23,21.03-.62l2.93-33.04c.45-5.79-.57-11.43-1.02-17.14s-1.08-9.99-1.95-15.63c-.59-3.86-1.24-7.78-.97-11.73-6.25-1.38-5.02,1.23-7.29,2.98-14.58,11.24-30.94,22.54-47.42,32.19-5.77,1.14-9.38,4.32-15.63,4.88-21.38,1.93-23.8-12.32-17.08-29.29,5.09-12.87,15.52-25.04,23.74-35.81,4.72-6.18,9.73-12.34,13.86-18.92,4.78-5.56,10.36-10.79,14.47-17.09-3.02-3.35-4.72-7.36-6.65-11.24-3.2-6.42-6.07-12.83-8.79-19.54-1.27-5.96-3.34-11.69-4.88-17.58-2.09-8.01-3.88-15.09-4.88-23.45-.2-1.63-.97-1.85-.98-1.95-.03-.32.03-.65,0-.98-1.42-16.28.6-34.54,1.96-50.8-15.99-.68-33.13-6.59-46.9-14.66-3.27-1.92-7.45-5.45-10.75-7.82-1.99-1.97-3.97-3.78-5.86-5.86-.31-.34-.68-.63-.98-.98-.95-1.1-2.5-2.37-2.93-2.93-4.1-5.35-7.56-12.84-11.2-18.59-.94-1.48-1.1-3.02-3.45-2.9.05-.32-.05-.66,0-.98.02-.11,1.59-.37,1.68-1.42s-3.61-11.33-4.15-14.18c-5.08-26.64-2.41-53.13,10.29-77.21.26-.11.67.1.98,0-3.41,24.8-3.6,48.81,5.13,72.53,14.8,40.22,45.48,58.33,88.2,55.48,11.91-.8,31.08-7.63,41.74-2.75,2.33,1.07,6.72,4.06,9.51,5.64,3.62,2.05,7.14,4.7,10.75,6.84,8.63,5.12,17,10.78,25.68,15.85,1.51.88,2.56,2.06,4.61,1.74,1.59,1.31,3.23,2.69,4.88,3.91,1.21.89,5.14,3.99,6.21,3.81,3.01-.51,7.94-8.26,7.45-12.03-.81-6.22-5.51-5.8-9.06-7.61-4.12-2.1-1.45-9.5,5.32-9.03,11.77.82,26.94,20.65,35.02,28.76,4.37,4.38,7.46,7.99,12.7,11.72,17.68,12.6,34.27,13.62,52.14.81,25.53-18.3,25.9-62.8,5.5-84.82-2.31-2.49-5.36-5.32-7.82-7.82-3.58-6.25-9.61-10.68-14.65-15.63-.33-.32-.65-.66-.98-.98-.99-.96-1.91-1.95-2.93-2.93-.65-.62-1.28-1.31-1.95-1.95-1.55-3.44-5.26-6.1-7.82-8.79-.32-.33-.66-.65-.98-.98-1.18-1.21-1.9-3.22-3.91-3.91-1.4-1.93-2.35-3.09-3.91-4.88-2.02-2.32-4.84-4.64-6.84-6.84-.31-.34-.67-.64-.98-.98-9.26-10.22-17.95-21.16-28.33-30.28-1.18-1.5-2.75-3.37-3.91-4.88-10.5-13.71-7.24-20.17-13.5-32.9-2.58-5.24-6.95-8.17-10.92-12.04-.33-.32-.64-.66-.98-.98-.64-.61-1.16-1.24-1.95-1.95-1.95-1.75-3.82-3.26-5.86-4.88-15.25-12.11-14.94-8.27-32.23-13.19-5.12-1.46-10.07-3.65-14.65-6.34-1.46,7.29-5.36,16.49-9.78,22.47s-15.17,12.33-21.67,15.74c-2.21,1.16-.25,3.09-5.69.87,1.32-13.06,1.14-23.28-4.05-35.52-1.58-3.74-11.91-20.61-15.79-20.03-2.27.34-4.01,3.93-5.32,4.76-2.2,1.41-9.53,4.75-11.97,4.87-.31.01-.81.08-.98,0ZM574.39,129.95c-.17-2.23-.71-4.73-1.46-6.83-7.42,8.47-16.51,15.9-23.58,24.76-2.61,3.27-7.96,10.39-9.96,13.99-.57,1.03-3.89,7.38-3.97,7.82-.28,1.53.94,1.67,1.84,2.27,5.02,3.33,12.24,5.65,17.58,8.79.28,1.64,7.18,4.38,8.74,5.47,1.09.76.53,2.63,1.99,2.34,2.51-4.35,3.63-7.91,4.9-12.69,2.6-9.83,2.76-16.62,2.93-26.38,0-.33,0-.65,0-.98,1.49-5.28,1.39-13.02.98-18.56ZM512.85,183.68c.75-2.73-4.01-2.36-5.68-2.63-4.56-.74-9.22-1.46-13.86-1.28v24.91c0,.27-1.03.65-.8,1.28,5.77,3.53,10.34,8.5,15.45,12.89,5.48,7.13,7.81,12.47,10.75,20.51,1.41,3.86,3.07,7.66,3.92,11.72,1.83.26.64-1.96.96-2.92,3.03.43,1.94-2.51,2.93-4.88,1.06-2.14,2.91-4.7,3.62-6.64,1.61-4.41,1.8-14.84,3.32-17.19,1.68-2.6,4.71.06,7.71,1.36,12.16,8.9,35.69,14.13,49.82,8.79,1.9-.72,5.07-.13,4.88-3.9-.23-.25-2.07.65-3.05.44-14.71-3.23-37.5-24.28-52.63-32.68-8.83-4.9-11.11-6.53-21.49-8.79-2.14-.46-3.75-.63-5.86-.98ZM393.67,187.59c-.92-.19-9.76,3.91-10.38,3.98-28.49,2.85-65.58,32.23-85.33,57.11l-11.74,17.06,47.54-27.2c3.39-.15.67.43.25.96-3.24,4.17-6.46,8.41-9.7,12.56l-4.88,4.88c-.59.64-1.32,1.29-1.95,1.95-.92.96-1.97,1.96-2.93,2.93-.32.33-.65.65-.98.98-.96.96-1.97,2-2.93,2.93-.33.32-.65.66-.98.98l-4.88,4.88c-3.54,3.35-8.79,7.09-12.7,10.75-6.89,6.46-13.85,12.9-19.54,20.51-23.97,24.89-40.78,57.42-47.87,88.9l-7.81,18.56c.19.23,3.31-1.8,3.95-2.39,1.98-1.86,4.4-5.8,5.81-7.38,11.71-13,21.51-26.61,32.24-40.05l11.72-11.72c.89-.1,1.41-1.87,2.91.49-3.23,6.18-5.88,12.67-8.77,19.05-2.09,4.61-4.17,9.1-6.36,13.66-.48.99-2.44,3.33-.48,3.92-.19.36-.8.64-.98.98-2.7,5.12-5.93,10.12-7.82,15.63-5.31,9.13-10.83,17.83-15.63,26.38-1.77,3.15-3.69,7.3-4.88,10.75-6.2,11.7-10.1,21.44-12.7,35.17-1.7.98-1.64,2.73-2,4.35-3.24,14.9-4.27,30.23-3.86,45.47,1.7-.25,1.66-1.98,2.22-3.14,3.13-6.5,4.86-13.66,7.54-20.3.9-2.23,1.98-4.59,2.93-6.84l9.77-19.54c6.67-11.79,14.07-23.14,22.46-33.71,1.48-1.3,2.05,3.6,2.06,3.97.03,1.77-1.82,1.21-2.03,2.07-.44,1.8.22,4.23-.02,6.17-.62,5.17-.91,11.66-1.95,16.61-3.03,14.32-10.47,25.47-14.65,39.08-6.2,20.16-8.49,43.74-5.86,64.48.25,1.99,2.01,11.07,2.94,11.72l8.42-11.09c9.2-17.72,17.78-34.91,22.83-54.36,5.16-19.91,7.45-40.22,9.77-60.57.04-.32-.04-.66,0-.98,2.79-8.71,3.42-18.26,3.91-27.35.88-4.77,1.47-7.72,1.95-12.7l6.84-40.05c.47.05.77-.02.96-.5.75-6.14,2.4-12.11,3.92-18.06,1.65-6.45,2.99-13.17,4.88-19.54.21-.72,1.39-3.09,1.95-4.88,1.32-4.19,2.49-8.55,3.91-12.7,2.34-6.85,5.31-13.67,7.82-20.51,2.71-2.54,3.39-6.72,4.88-9.77,4.58-9.32,9.29-17.56,14.65-26.38,2.55-4.19,5.05-8.66,7.82-12.7,6.32-9.25,13.27-17.93,20.51-26.38l14.65-14.65c9.72-8.05,20.4-15.02,30.28-22.47,1.14-.86,4.37-1.26,4.88-3.9l-16.61,1.94ZM848.9,316.54c26.93-26.12,27.67-76.8,13.18-109.4-.52-1.18-2.37-6.58-3.89-5.87-.59.28-6.11,9.02-7.34,10.74-.76,1.06-1.43,2.22-1.95,2.93-2.63,1.22-4.03,4.04-5.86,5.86-.33.32-.65.65-.98.98-2.16,2.16-5.31,3.9-6.84,6.84-10.92,7.73-30.98,17.18-39.08,26.38-3.03.74-5.85,4.09-7.79,6.38-16.77,19.79-25.34,48.84-7.85,70.8,1.39-19.08,8.32-38.13,20.52-52.75,1.19-1.43,2.18-3.01,3.91-3.91-5.16,21.46-11.54,41.99-9.77,64.48,17.87.98,39.9-8.03,51.78-21.5.53-.6,1.19-1,1.95-1.95ZM780.52,352.68c-4.27-4.47-9.65-7.44-13.19-12.68l-25.89,27.34c-.98.97-1.96,1.99-2.93,2.93-1.36,1.32-2.58,2.57-3.91,3.91-.32.33-.66.64-.98.98-2.23,2.33-5.94,4.93-6.84,7.82-.35.31-.65.65-.98.98-.79.77-2.29,1.27-2.92,2.46-.32.92,3.59,4.15,4.88,5.36.33.31.65.65.98.98,4.78,6.36,8.69,13.49,9.78,21.49,1.82.19,1.44-3.54,1.94-3.9.27-.2,1.7.2,1.95,0s-.22-1.57,0-1.95c1.14-1.96,4.84-5.91,6.84-8.79,4.89-5.05,9.41-10.81,13.67-16.38.96-1.25,3.25-4.37,2.94-6.09,4.98-6.14,10.23-12.28,14.59-18.06.94-1.25,3.52-2.87,3.97-3.93.86-2.03-2.8-1.89-3.9-2.43ZM586.07,482.66c-.1-.14-2.27-.53-3.19-1.17-6.51-4.53-13.17-9.15-19.91-13.34-5.62-3.49-26.42-16.54-31.29-17.55-10.1-2.09-27.38,5.89-38.33,4.71-6.3,39.11.34,77.37,18.53,112.29,11.25-11.96,20.86-25.67,31.72-38.11,6.74-7.73,13.96-15.49,20.99-22.97,5.17-5.49,17.1-15.09,20.59-20.44.6-.92,1.53-2.5.89-3.42ZM601.74,494.33l-23.45,24.42c-.31.34-.66.64-.98.98l-10.75,11.72c-22.41,23.96-43.52,48.76-64.48,73.76-12.45,14.85-25.82,29.16-35.17,47.38-1.45,2.82-7.55,11-2.92,13.19,4.23,2,12.79-4.12,16.6-6.35,14.26-8.37,27.92-21.05,40.05-32.24,4.03-1.27,7.1-5.69,9.77-8.79,4.78-3.36,10.9-9.44,15.63-13.68,7.05-6.31,13.72-12.97,20.51-19.54.33-.32.65-.66.98-.98l5.86-5.86c1.67-1.62,3.25-3.29,4.88-4.88l13.21-11.7c13.06-12.83,25.77-26.07,38.56-39.1.96-.98,1.96-1.94,2.93-2.93,4.43-4.52,10.06-8.4,13.68-13.68s-1.24-5.15-4.88-7.82l-13.68-13.68c-1.75-2.09-3.72-3.7-5.44-5.81-1.18-1.46-1.08-4.64-2.86-3.95-2.38.92-15.17,16.33-18.09,19.53ZM658.4,519.73l-5.86,4.87c6.55.27,14.64-.85,20.51-3.9,4.75-2.46,3.97-3.38,6.43-6.77.77-1.06,2.63-.54,2.36-2.01-2.94-1.48-7.21.26-9.17.05-.65-.07-.62-1.99-1.1-2.06-2.26-.35-11.44,7.42-13.17,9.82Z"/>
    <path class="g" d="M458.14,127.02c2.75-1.59,5.72-3.45,8.8-1.95-2.22,4.52.55,3.48.91,4.62,1.29,4.12,1.18,4.8-1.89,7.08,1.25.08,2.88.87,3.45,1.98.36.69,1.15,11.69,1.71,13.87,2.64,3.44,1.26,9.52,1.61,12.88.07.65,1.98.53,2.08,1.19.19,1.29-1.16,4.35-1.12,6.72.06,3.14,1.67,5.26,1.96,7.9,1.09,9.72-2,20.92-4.76,28.45-.41,1.12.34,2.81-.53,4.24-.44.72-2.09.75-2.31,1.05-.12.17.93,2.38.7,4.02-.28,1.93-2.42,4.41-2.41,5.14,0,.45,2,4.14,2.56,4.4.16.08.66.01.98,0,4.17,4.73,6.06-.06,8.21-1.54,1.43-.99,3.53-1.97,5.23-3.05,1.51-.96,1.12-3.21,4.44-2.27l11.12,11.95c.18,2.52,1.57,8.55,4.2,8.6l-1.94.96c-.82,2.57,1.31,1.52,1.92,2.65,1.93,3.52,3.28,18.3,2.99,22.2-.04.61-1.98.49-2.02,1.1-.02.26,1.05,4.93,1.22,5.13.44.54,1.41.04,1.75.18,5.44,2.22,3.48.29,5.69-.87,6.5-3.42,17.46-10.04,21.67-15.74,1.8,2.09,3.26-1.31,3.92-2.43,1.54-2.63,5.57-9.63,6.39-12.23.41-1.31-.61-2.77-.52-2.89,1.92-2.45,9.19,1.93,11.49,2.63,2.51.76,5.35,2.18,5.69,2.2,2.24.12,3.33-1.97,5.77,1.97.86-3.54,2.46-.89,5.38-.96l-.99,1.94c4.89-2.07,9.77.68,12.95,4.15l6.59,2.7c2.04,1.62,3.91,3.14,5.86,4.88-2.43.91.5,1.15,1.95,1.95.33.32.65.66.98.98,1.17,1.37,2.1,3.27,3.28,4.54,4.43,4.77,7.22,9.08,9.01,15.98,1.25,4.83,1.21,12.01,4.04,16.59,1.31,2.11,3.87,4.26,5.7,6.85.55.78.62,3.9,2.4.97,1.16,1.51,2.73,3.39,3.91,4.88,3.66,4.65,7.82,8.81,11.19,13.72l17.14,16.56c.31.34.67.64.98.98,1.7,2.92,3.78,5.59,6.35,7.8l.48-.96c1.55,1.79,2.5,2.96,3.91,4.88.67.92,1.26,4.15,3.91,3.91.32.33.66.64.98.98,1.29,3.98,5.02,6.1,7.82,8.79.67.65,1.3,1.33,1.95,1.95l2.93,2.93c.33.32.65.65.98.98,4,5.76,9.77,10.65,14.65,15.63,2.45,2.5,5.51,5.32,7.82,7.82.14,2.61,2.56,3.62,3.79,5.51,11.31,17.41,11.45,42.53,3.11,60.69-1.3,2.83-1.31,6.07-3.54,8.96s-11.68,8.98-14.88,10.73c-3.79,2.06-7.46,3.41-10.78,4.84-7.62,3.28-10.45,2.16-18.18.05-1.08-.3-11.07-3.69-11.6-3.99-1.33-.77-2.97-4.94-5.56-2.78-5.24-3.73-8.33-7.34-12.7-11.72l-7.31-9.78c-4.77-3.43-8.69-10.04-12.72-13.65-3.91-3.51-9.56-4.73-13.65-7.93-1.24-.04-7.56,1.74-8.1,2.29-.59.61-.54,2.75-1.19,4-.48.92-3.29.17-1.48,3.59,2.21,4.17,12.69,4.02,12.02,10.99-.23,2.38-3.46,8.27-6.28,8.33-1.97.05-3.92-2.19-6.22-1.73-1.66-1.22-3.3-2.59-4.88-3.91-2.45-2.02-8.17-4.74-8.55-5.14-2.21-2.3-.33-2.9-5.93-5.32-3.72-1.61-6.84-3.33-10.65-5.56-.85-.5-3.56-5.75-5.14-1.56-3.61-2.14-7.12-4.79-10.75-6.84l-6.17-5.53c-7.64-4.51-16.47-3.83-25.1-2.87s-18.28,3.69-26.83,4.53c-2.4.23-11.32-.43-13.56-.99-.82-.21-.72-1.3-.64-1.96h-.95c1.59,2.79-6.88,1.43-8.25,1.03-1.26-.37-.24-2.62-.56-2.99-.25-.28-3.07,1-4.34.95-3.99-.16-20.96-9.14-24.68-11.49-7.37-4.65-18.51-21.31-22.84-28.93-6.6-11.61-13.5-48.44-11.59-61.57.25-1.72,1.88-2.76,2.01-4.93.12-2.04-1.34-4.37-1.14-5.76.1-.67,1.88-.5,1.99-1.2.34-2.13-2.03-7.13.01-10.14-1.77-.55-1.77.91-1.95.97-.31.1-.72-.11-.98,0-3.35,1.48-4.91,5.27-6.34,8.8-9.53,23.53-10.23,55.06-3.38,79.4.19.66,3.3,1.49,1.91,4.61-.05.32.05.66,0,.98-5.07,32.68,24.15,89.21,43.99,114.76,12.76,16.43,35.14,40.57,51.72,52.84,1.57,1.17,2.01,1.93,3.94.43,1.93,3.88,3.63,7.9,6.65,11.24-4.11,6.3-9.69,11.52-14.47,17.09-8.33,9.7-18.44,20.11-24.71,30.53-.64,1.07-1.37,4.2-1.84,4.49-1.01.63-3.1-.17-3.75.16-.09.04.71,1.06.31,1.92-4.76,10.27-13.73,22.05-12.96,33.61.57,8.63,14.02,21.37,22.43,13.31,6.25-.56,9.86-3.75,15.63-4.88l-15.63,6.83c23.31.44,49.02-4,70.33-13.67.88,6.93.76,13.99.98,20.99s-.37,3.68-.96,6.04c-.5,1.98-1.23,12.62-1.53,15.88-.13,1.4,2.14,3.03,1.52,3.96-.35.52-10.9,2.03-12.26,2.01-8.8-.08-35.53-4.55-42.78-6.2-13.66-3.1-26.19-7.19-38.3-11.13-9.99-3.25-19.77-6.65-29.81-10.33-.69-.25-1.76.22-1.81.14-.41-.69.17-2.48-.08-2.84-.07-.09-1.42.82-2.23.63-19.14-4.42-42.39-18.27-59.54-27.68l-6.6-1.27c-2.64-1.43-5.56-2.65-7.82-3.91l-4.14-5.19c-6.27-2.39-9.09-4.43-13.65-8.22-.69-.57-5.21,1.24-2.77-2.16-2.74-.83-5.74-2.58-8.14-4.14-13.86-9-28.37-20.28-41.64-27.19-5.65-2.94-10.47-7.28-15.61-11.23,3.72-5.16,7.64-10.58,10.73-16.12.77,2.17,2.2-1.45,2.47-1.93,6.14-11.16,12.75-29.93,18.79-38.29.82-1.14,4.69-23.05,5.51-26.56,12.02-51.25,13.28-107.31,27.41-156.96.95-3.32,1.48-7.12,4.43-9.25l-1.95-.97c3.19-2.96,3.15-8.06,4.41-11.75,11.53-33.74,30.71-69.49,54.53-96.85,2.31-2.66,6.63-4.27,7.49-9.12.33-.32.65-.65.98-.98,2.4.06,2.78-1.58,3.91-2.93,3.62-4.36,6.71-7.06,11.72-10.75l6.83-1.95c-.51,7.05,1.11,17.6,4.92,23.64.35.55,8.58,8.85,9.13,9.19,4.66,2.93,3.2-.25,3.54-.6.1-.1,1.41,0,1.95,0,.45,0,1.7.82,2.93-.01,1.1-2.67-1.65-2.88-1.74-3.39-4.98-27.01.22-50.34,7.75-72.19,1.28-3.72,1.88-7.54,2.8-11.35l1.93.99c1.27-6.53,2.81-11.86,7.77-16.4l7.87-13.89c.94-.8,1.08-1.86,2.93-2.93ZM444.46,229.59c.69,1.22-1.79,4.47,4.15,2.68,5.13-1.55,3.6-4.36,4.93-6.31,12.54-18.24,9.06-36.23,8.46-57.38-.1-3.45,2.41-21.71-2.39-21.86-4.15-.12-8.74,16.65-10.39,20.53-6.05,14.22-11.4,28.77-10.49,46.09.47,8.97,1.96,9.55,5.73,16.24ZM560.72,321.42c1.51-.57.08-4.82-.32-6.03-1.48-4.38-6.53-13.02-10.14-15.51-.66-.46-8.58-4.73-9.42-5.07-4.64-1.88-16.23-.65-21.16.76-1.62.46-3.47-.2-2.92,2.41-8.13,2.87-14.72,8.3-21.97,12.71-1.63,1.38.85.81,1.45.97,2.36.62,3.34,1.48,6.41,1.04,1.98-.29,4.11-2.16,4.8-2.02,2.43.49.67,3.77.8,4.6.52,3.25,1.93,4.42,2.65,5.83.64,1.28.68,3.54,1.17,4.07.46.49,1.58.02,1.75.16,1.06.85,1.13.99,1.95,1.95.19.23,0,1.47.97,2.41,4.29,4.15,9.7,3.41,14.66,2.47,4.23-.8,4.04-.32,7.82-2.93.21-.15,2.17-2.23,2.93-2.93.13-.12,1.12.22,1.68-.24,2.47-2.03,2.83-9.19,3.21-9.53,1.71-1.51,8.6,4.39,11.72,4.89.44.07,1.66.11,1.95,0ZM348.73,405.43c-.05.32.05.66,0,.98-1.76,4.4-2.53,10.43-2.92,15.15-1.68,20.04-.75,42.36,2.21,62.25.23,1.55.51,3.54,1.69,4.66.04.32-.04.66,0,.98,2.86,24.06,10.63,46.46,21.15,67.63,2.8,5.63,4.79,10.41,7.63,15.43.78,1.39.32,3.52.58,3.84s2.14-.1,2.88.04c2.64,5.82,4.26,9.97,8.79,15.18.87,1,2.62,1.27,2.83,1.56.77,1.06-1.19,3.54-.89,3.77.26.21,2.04-.41,2.69.19.58.53.21,2.46,1.19,3.27s2.57.22,2.96.45c5.08,2.94,11.04,10.45,16.15,14.63,4.76,3.89,10.18,7.1,15.11,10.77,1.13-1.35-11.98-22.36-13.67-25.4,1.94-.57-.02-2.91-.44-3.96-3.86-9.61-10.31-17.55-15.09-26.92-8.03-15.73-14.09-32.15-20.7-48.48-1.44-3.56-.35-1.27-.84-5-.09-.67-1.75-.61-2.29-1.85-5.96-13.7-9.09-31.49-11.87-44.73-2.67-12.71-5.45-24.88-6.51-36.59-.23-2.49,1.08-4.66,1.03-6.86-.26-10.65-2.29-19.96,1.03-30.29.17-.53-1.75-.3-1.96-1.1-1.05-3.88,1.89-9.35,2.02-13.52.09-2.63-1.06-5.28-.96-6.91.08-1.35,1.61-2.37,1.6-2.89-.01-1.17-2.54-3.83-4.41-.75-4.92,8.11-7.82,24.91-9,34.47ZM678.92,414.23c-.13-.13.42-1.33-1.2-2.26-.8-.46-8.77-4.23-9.27-4.38-8.12-2.57-15.2,10.74-14.96,17.83.15,4.35,2.25,12.33,5.89,15.19.23.42,5.22,6.87,5.81,7.37,4.87,4.05,8.82,4.89,14.7,3.37,1.78-.46,3.33-.95,4.88-1.95,6.55-4.22,7.59-13.78,4.81-20.73-.36-.9-1.62-.93-1.85-1.47-3.3-7.37-3.66-7.82-8.82-12.97Z"/>
    <path class="g" d="M531.41,331.19v.98l-2.35-.09-.58-.89c.95-.03,2.03.13,2.93,0Z"/>
    <path class="m" d="M393.67,187.59c4.99,1.05,5.52.13,10.23-.04,2.43-.09,3.2-.46,1.49,1.99-9.89,7.45-20.57,14.42-30.28,22.47-6.13,5.08-9.29,8.4-14.65,14.65-7.25,8.44-14.2,17.12-20.51,26.38l-6.13,7.1-1.68,5.6c-5.37,8.82-10.08,17.05-14.65,26.38l-.96-.97c-1.21,3.61-2.61,7.17-3.92,10.74-2.5,6.84-5.48,13.67-7.82,20.51l-3.95,8.27.04,4.43c-.57,1.79-1.74,4.17-1.95,4.88-1.36-2.12-1.16.95-1.43,1.98-1.12,4.33-2.65,8.57-3.74,12.89-.36,1.43-1.63,3.68.29,4.67-1.52,5.95-3.17,11.92-3.92,18.06-.19.48-.49.55-.96.5-.15-.01-.51-.87-.96-.99-2.66,13.67-4.58,27.62-5.88,41.04-.48,4.98-1.07,7.93-1.95,12.7-1.73,9.36-2.86,17.89-3.91,27.35-.04.32.04.66,0,.98-3.02,12.23-3.93,24.9-6.17,37.3-1.12,6.19-2.93,12.21-4.15,18.33-.3,1.49-1.25,3.99.55,4.93-5.04,19.45-13.62,36.65-22.83,54.36l-8.42,11.09c-.94-.65-2.69-9.73-2.94-11.72-.82-20.51,1.27-40.11,5.97-59.98.31-1.31,1.69-3.66-.11-4.5,4.18-13.6,11.62-24.76,14.65-39.08l.97.49c.11-5.48,3.91-11.84.99-17.1.23-1.95-.42-4.37.02-6.17.21-.87,2.06-.3,2.03-2.07,0-.38-.58-5.27-2.06-3.97-8.39,10.57-15.79,21.92-22.46,33.71-3.88,6.86-6.74,12.37-9.77,19.54-.95,2.24-2.03,4.6-2.93,6.84l-7.81,15.63c-.66-14.12,1.27-28.18,3.9-42.01s6.5-23.46,12.7-35.17c1.78-3.37,4.69-6.55,5.84-10.22l-.96-.53c4.8-8.54,10.32-17.25,15.63-26.38,2.84-4.88,6.85-9.95,7.82-15.63.18-.34.79-.62.98-.98,2.34-4.51,4.22-9.07,6.36-13.66.47-1,2.45-3.32.48-3.92,2.88-6.37,5.54-12.87,8.77-19.05-1.5-2.35-2.01-.58-2.91-.49-.22.02-.22-1.07-1.93.35-2.73,2.27-7.41,8.39-9.79,11.37-10.72,13.44-20.53,27.05-32.24,40.05l-4.88,2.93c-.59-.64,1.59-5.89,2.04-7.04s3.19-.52.89-4.67c7.09-31.48,23.9-64,47.87-88.9,5.88-6.11,11.79-11.92,18.08-17.57.42-.38,3.39-2.58,1.46-2.94,3.9-3.66,9.16-7.4,12.7-10.75,1.71-1.61,3.24-3.3,4.88-4.88.33-.32.65-.66.98-.98,1.98.08,3.01-1,2.93-2.93.33-.33.65-.65.98-.98,2.2.53,2.23-1.26,2.93-2.93.63-.66,1.36-1.31,1.95-1.95,1.35-1.46,4.03-2.57,4.88-4.88,3.24-4.15,6.46-8.4,9.7-12.56.42-.54,3.14-1.12-.25-.96l-47.54,27.2,11.74-17.06c19.75-24.88,56.84-54.26,85.33-57.11.62-.06,9.46-4.17,10.38-3.98Z"/>
    <path class="p" d="M586.07,482.66c.65.92-.29,2.5-.89,3.42-3.49,5.35-15.42,14.95-20.59,20.44-7.03,7.48-14.25,15.24-20.99,22.97-10.86,12.44-20.48,26.15-31.72,38.11-18.19-34.93-24.83-73.19-18.53-112.29,10.95,1.19,28.23-6.8,38.33-4.71,4.87,1.01,25.67,14.05,31.29,17.55,6.74,4.19,13.39,8.81,19.91,13.34.92.64,3.09,1.03,3.19,1.17Z"/>
    <path class="m" d="M409.3,423.02l2.93,2.93c.3.35.67.64.98.98.18,3.84,3.91,4.46,5.86,5.86,3.3,2.37,7.47,5.9,10.75,7.82-1.18,1.55,4.26,3.57,5.23,4.05,12.32,6.06,25.8,11.33,39.71,11.58-.35,16.59-3.9,33.41,0,49.83.03.32-.03.66,0,.98l.98,1.95c1,8.35,2.79,15.44,4.88,23.45-1.91,5.23,2.97,12.87,4.88,17.58,2.72,6.71,5.6,13.12,8.79,19.54-1.93,1.5-2.37.74-3.94-.43-16.58-12.27-38.96-36.41-51.72-52.84-19.84-25.55-49.06-82.08-43.99-114.76,2.36-.12,2.51,1.42,3.45,2.9,3.64,5.76,7.1,13.24,11.2,18.59Z"/>
    <path class="m" d="M512.85,183.68c2.11.34,3.73.51,5.86.98l21.49,8.79c15.13,8.39,37.92,29.45,52.63,32.68.98.22,2.82-.68,3.05-.44.2,3.77-2.98,3.19-4.88,3.9-17.99,2.83-33.55-1.75-49.82-8.79-3-1.3-6.03-3.96-7.71-1.36-1.52,2.35-1.72,12.78-3.32,17.19-.71,1.94-2.56,4.5-3.62,6.64-.78,1.58-1.99,2.07-2.93,4.88-2.43-.35-1.29-9.66-4.88-8.79-2.94-8.05-5.26-13.38-10.75-20.51-3.9-5.07-8.01-8.89-13.26-12.72-1.04-1.91.56-2.88.56-3.4v-21.98c5.83,1.03,11.74,1.97,17.58,2.93Z"/>
    <path class="m" d="M574.39,129.95c-1.82,5.55-.95,12.63-.98,18.56,0,.33,0,.65,0,.98l-3.29,21.64.35,4.73c-1.26,4.78-2.39,8.35-4.9,12.69-1.46.29-.9-1.58-1.99-2.34-1.56-1.09-8.46-3.83-8.74-5.47-.01-.08.83-.47.94-.88l-11.48-5.68-7.05-2.23c-.91-.6-2.12-.74-1.84-2.27.08-.43,3.39-6.79,3.97-7.82,2-3.59,7.35-10.72,9.96-13.99,7.08-8.87,16.16-16.29,23.58-24.76.75,2.1,1.29,4.6,1.46,6.83Z"/>
    <path class="m" d="M481.59,677.01c16.49-9.65,32.84-20.95,47.42-32.19,2.27-1.75,1.04-4.37,7.29-2.98-.27,3.94.38,7.87.97,11.73l.98,15.63c-.52.59-1.29.68-1.95.98-21.31,9.66-47.02,14.11-70.33,13.67l15.63-6.83Z"/>
    <path class="f" d="M382.92,230.57c-.86,4.85-5.18,6.46-7.49,9.12-23.81,27.36-42.99,63.11-54.53,96.85-1.26,3.69-1.22,8.79-4.41,11.75l1.95.97c-2.94,2.13-3.48,5.93-4.43,9.25-14.14,49.65-15.39,105.71-27.41,156.96-.82,3.51-4.69,25.42-5.51,26.56-6.05,8.35-12.65,27.13-18.79,38.29-.27.48-1.7,4.1-2.47,1.93,37.16-66.71,32.65-144.9,50.87-217.29,12.92-51.35,34.15-97.1,72.22-134.39Z"/>
    <path class="f" d="M342.87,660.4l6.6,1.27c17.16,9.4,40.41,23.26,59.54,27.68.81.19,2.16-.73,2.23-.63.26.36-.32,2.15.08,2.84.05.08,1.11-.4,1.81-.14,10.04,3.68,19.82,7.08,29.81,10.33,12.11,3.94,24.64,8.03,38.3,11.13,7.25,1.64,33.99,6.12,42.78,6.2,1.36.01,11.91-1.5,12.26-2.01.62-.93-1.65-2.56-1.52-3.96.3-3.26,1.04-13.9,1.53-15.88.59-2.37,1.17.64.96-6.04s-.09-14.06-.98-20.99c.66-.3,1.43-.38,1.95-.98h.98c.45,5.7,1.47,11.35,1.02,17.14l-2.93,33.04c-.66,1.84-18.19.83-21.03.62-57.83-4.45-122.87-32.19-173.41-59.58Z"/>
    <path class="f" d="M468.89,228.62c-.55-.27-2.56-3.96-2.56-4.4,0-.73,2.13-3.21,2.41-5.14.23-1.63-.82-3.85-.7-4.02.22-.3,1.87-.33,2.31-1.05.87-1.42.12-3.12.53-4.24,2.76-7.53,5.85-18.73,4.76-28.45-.3-2.64-1.9-4.76-1.96-7.9-.04-2.37,1.31-5.43,1.12-6.72-.1-.67-2.01-.55-2.08-1.19-.35-3.36,1.03-9.45-1.61-12.88-.56-2.18-1.35-13.17-1.71-13.87-.57-1.11-2.2-1.89-3.45-1.98,3.07-2.29,3.17-2.97,1.89-7.08-.36-1.14-3.12-.1-.91-4.62-3.08-1.5-6.04.36-8.8,1.95.15-3.22,6.52-9.84,8.61-6.17,2.27,3.99,4.71,20.01,5.74,25.52,3.07,16.47,5.78,34.56,4.09,51.35-1.03,10.26-6.76,20.48-7.7,30.89ZM465.47,121.16v.98c.63-.33.63-.65,0-.98Z"/>
    <path class="f" d="M403.44,307.74c.19-.06.18-1.52,1.95-.97-2.05,3.01.33,8.01-.01,10.14-.11.71-1.89.54-1.99,1.2-.21,1.38,1.26,3.71,1.14,5.76-.13,2.17-1.76,3.21-2.01,4.93-1.9,13.13,5,49.96,11.59,61.57,4.33,7.62,15.47,24.28,22.84,28.93,3.72,2.35,20.69,11.33,24.68,11.49,1.27.05,4.09-1.23,4.34-.95.32.37-.69,2.62.56,2.99,1.36.41,9.83,1.76,8.25-1.03h.95c-.08.66-.18,1.76.64,1.97,2.25.56,11.16,1.23,13.56.99,8.55-.83,18.4-3.59,26.83-4.53s17.46-1.64,25.1,2.87l6.17,5.53c-2.78-1.58-7.17-4.57-9.51-5.64-10.66-4.88-29.83,1.95-41.74,2.75-42.72,2.85-73.4-15.26-88.2-55.48-8.73-23.72-8.54-47.73-5.13-72.53Z"/>
    <path class="f" d="M455.21,129.95l-7.87,13.89c-4.96,4.54-6.5,9.87-7.77,16.4l-1.93-.99c-.92,3.81-1.51,7.63-2.8,11.35-7.53,21.85-12.73,45.18-7.75,72.19.1.52,2.84.72,1.74,3.39-1.23.83-2.48,0-2.93.01-4.48-19.85-3.44-39.1,1.26-58.82,3.92-16.42,15.57-46.86,28.04-57.44Z"/>
    <path class="f" d="M394.64,400.55c1.39-3.13-1.72-3.95-1.91-4.61-6.85-24.33-6.16-55.87,3.38-79.4,1.43-3.53,2.99-7.32,6.34-8.8-12.7,24.07-15.37,50.57-10.29,77.21.54,2.84,4.24,13.1,4.15,14.18s-1.66,1.31-1.68,1.42Z"/>
    <path class="f" d="M506.99,274.53c-.34-.14-1.31.36-1.75-.18-.17-.21-1.24-4.87-1.22-5.13.05-.61,1.98-.5,2.02-1.1.29-3.9-1.06-18.68-2.99-22.2-.62-1.12-2.74-.07-1.92-2.65l1.94-.96c-2.64-.05-4.03-6.07-4.2-8.6l-11.12-11.95c-3.32-.94-2.93,1.31-4.44,2.27-1.71,1.08-3.8,2.06-5.23,3.05-2.14,1.48-4.04,6.26-8.21,1.54,2.44-.12,9.77-3.45,11.97-4.87,1.3-.84,3.05-4.43,5.32-4.76,3.88-.58,14.21,16.29,15.79,20.03,5.18,12.24,5.37,22.46,4.05,35.52Z"/>
    <path class="f" d="M591,254.99l-6.59-2.7c-3.18-3.47-8.06-6.21-12.95-4.15l.99-1.94c-2.92.07-4.51-2.58-5.38.96-2.44-3.94-3.53-1.86-5.77-1.97-.34-.02-3.17-1.43-5.69-2.2-2.3-.7-9.58-5.08-11.49-2.63-.09.12.93,1.58.52,2.89-.82,2.6-4.85,9.6-6.39,12.23-.66,1.12-2.12,4.53-3.92,2.43,4.41-5.97,8.32-15.18,9.78-22.47,4.58,2.69,9.52,4.88,14.65,6.34,17.29,4.92,16.98,1.08,32.23,13.19Z"/>
    <path class="f" d="M264.72,609.6c13.27,6.91,27.77,18.19,41.64,27.19,2.4,1.56,5.4,3.3,8.14,4.14-2.43,3.4,2.09,1.59,2.77,2.16,4.56,3.78,7.37,5.83,13.65,8.22l4.14,5.19c-24.53-13.71-48.44-29.3-70.34-46.89Z"/>
    <path class="c" d="M429.81,440.6c13.76,8.07,30.9,13.97,46.9,14.66-1.36,16.26-3.38,34.52-1.96,50.8-3.89-16.42-.35-33.23,0-49.83-13.9-.25-27.39-5.52-39.71-11.58-.97-.48-6.42-2.49-5.23-4.05Z"/>
    <path class="c" d="M215.87,474.79c-2.62,13.83-4.56,27.89-3.9,42.01l7.81-15.63c-2.68,6.65-4.41,13.8-7.54,20.3-.56,1.16-.52,2.89-2.22,3.14-.42-15.24.62-30.57,3.86-45.47.35-1.63.3-3.38,2-4.35Z"/>
    <path class="c" d="M232.48,573.46c-2.63-20.74-.33-44.31,5.86-64.48,1.8.83.42,3.19.11,4.5-4.7,19.87-6.8,39.47-5.97,59.98Z"/>
    <path class="c" d="M507.96,218.85c-5.12-4.39-9.69-9.35-15.45-12.89-.23-.63.8-1.01.8-1.28v-24.91c4.64-.18,9.3.54,13.86,1.28,1.67.27,6.43-.1,5.68,2.63-5.84-.96-11.75-1.9-17.58-2.93v21.98c0,.53-1.6,1.5-.56,3.4,5.26,3.83,9.36,7.64,13.26,12.72Z"/>
    <path class="f" d="M423.95,246.2c-.34.34,1.12,3.53-3.54.6-.55-.35-8.78-8.64-9.13-9.19-3.82-6.03-5.44-16.59-4.92-23.64l-6.83,1.95c2.86-2.1,5.7-4.1,8.78-5.86-1.02,9.43-.11,22.58,6.86,29.79,2.59,2.68,6.62,3.37,8.79,6.36Z"/>
    <path class="c" d="M591,229.59c-14.13,5.34-37.67.11-49.82-8.79,16.27,7.04,31.83,11.62,49.82,8.79Z"/>
    <path class="f" d="M624.21,307.74c-1.78,2.93-1.85-.2-2.4-.97-1.83-2.59-4.4-4.73-5.7-6.85-2.83-4.58-2.79-11.76-4.04-16.59-1.79-6.9-4.58-11.21-9.01-15.98-1.18-1.27-2.1-3.18-3.28-4.54,3.97,3.87,8.34,6.79,10.92,12.04,6.26,12.73,3.01,19.19,13.5,32.9Z"/>
    <path class="c" d="M266.67,519.73c-1.8-.94-.85-3.44-.55-4.93,1.22-6.12,3.03-12.15,4.15-18.33,2.24-12.4,3.15-25.07,6.17-37.3-2.32,20.35-4.61,40.66-9.77,60.57Z"/>
    <path class="c" d="M224.66,391.76c2.3,4.15-.47,3.56-.89,4.67s-2.62,6.41-2.04,7.04l4.88-2.93c-1.42,1.57-3.83,5.52-5.81,7.38-.64.6-3.76,2.62-3.95,2.39l7.81-18.56ZM220.27,405.43v.98c.63-.33.63-.65,0-.98Z"/>
    <path class="c" d="M570.48,175.86l-.35-4.73,3.29-21.64c-.17,9.76-.33,16.55-2.93,26.38Z"/>
    <path class="c" d="M276.44,458.19c1.05-9.46,2.18-17.99,3.91-27.35-.49,9.09-1.11,18.64-3.91,27.35Z"/>
    <path class="c" d="M289.14,378.08l-6.84,40.05c1.3-13.42,3.22-27.37,5.88-41.04.45.13.81.98.96.99Z"/>
    <path class="g" d="M393.67,187.59l16.61-1.94c-.51,2.64-3.74,3.04-4.88,3.9,1.71-2.46.94-2.08-1.49-1.99-4.71.17-5.24,1.09-10.23.04Z"/>
    <path class="f" d="M558.76,445.49c1.58-4.19,4.29,1.07,5.14,1.56,3.81,2.23,6.93,3.95,10.65,5.56,5.6,2.43,3.72,3.03,5.93,5.32.38.4,6.1,3.11,8.55,5.14-2.05.33-3.1-.85-4.61-1.74-8.67-5.06-17.04-10.72-25.68-15.85Z"/>
    <path class="c" d="M254.95,453.3c2.92,5.26-.88,11.62-.99,17.1l-.97-.49c1.05-4.94,1.34-11.43,1.95-16.61Z"/>
    <path class="f" d="M628.12,312.63c10.38,9.12,19.07,20.07,28.33,30.28l-17.14-16.56c-3.37-4.91-7.53-9.07-11.19-13.72Z"/>
    <path class="c" d="M573.41,148.51c.02-5.93-.84-13.01.98-18.56.41,5.54.51,13.28-.98,18.56Z"/>
    <path class="c" d="M298.91,339.98c-1.89,6.37-3.24,13.09-4.88,19.54-1.91-.99-.65-3.25-.29-4.67,1.09-4.32,2.62-8.56,3.74-12.89.27-1.03.07-4.1,1.43-1.98Z"/>
    <path class="c" d="M539.22,669.2h-.98l-.98-15.63c.87,5.64,1.5,9.87,1.95,15.63Z"/>
    <path class="c" d="M485.49,550.01c-1.91-4.71-6.8-12.36-4.88-17.58,1.54,5.9,3.61,11.62,4.88,17.58Z"/>
    <path class="c" d="M257.88,385.9c-1.96-.59,0-2.93.48-3.92,2.19-4.57,4.28-9.06,6.36-13.66,1.97.6,0,2.92-.48,3.92-2.14,4.59-4.02,9.16-6.36,13.66Z"/>
    <path class="c" d="M540.2,193.45l-21.49-8.79c10.38,2.26,12.66,3.89,21.49,8.79Z"/>
    <path class="c" d="M518.71,239.36c3.6-.86,2.45,8.44,4.88,8.79.94-2.81,2.15-3.3,2.93-4.88-.99,2.38.1,5.32-2.93,4.88-.32.97.87,3.18-.96,2.92-.85-4.06-2.51-7.85-3.92-11.72Z"/>
    <path class="c" d="M317.47,292.11c-1.5,3.05-2.18,7.23-4.88,9.77,1.31-3.57,2.71-7.14,3.92-10.74l.96.97Z"/>
    <path class="c" d="M375.11,212.01l-14.65,14.65c5.37-6.25,8.53-9.58,14.65-14.65Z"/>
    <path class="c" d="M304.77,322.4c-1.42,4.15-2.59,8.51-3.91,12.7l-.04-4.43,3.95-8.27Z"/>
    <path class="c" d="M270.58,348.77l-11.72,11.72c2.38-2.98,7.07-9.09,9.79-11.37,1.71-1.43,1.72-.33,1.93-.35Z"/>
    <path class="c" d="M339.94,253.04c-2.76,4.04-5.26,8.51-7.82,12.7l1.68-5.6,6.13-7.1Z"/>
    <path class="f" d="M387.8,226.66c-1.12,1.35-1.51,2.99-3.91,2.93,1.11-1.12,1.45-3.1,3.91-2.93Z"/>
    <path class="c" d="M537.27,171.96l7.05,2.23,11.48,5.68c-.12.41-.96.79-.94.88-5.35-3.14-12.57-5.47-17.58-8.79Z"/>
    <path class="c" d="M228.57,439.62c1.2-3.44,3.11-7.59,4.88-10.75l.96.53c-1.15,3.67-4.06,6.85-5.84,10.22Z"/>
    <path class="f" d="M657.43,343.89c2,2.2,4.82,4.52,6.84,6.84l-.48.96c-2.58-2.21-4.65-4.88-6.35-7.8Z"/>
    <path class="c" d="M310.63,265.74c.96-.93,1.97-1.97,2.93-2.93.08,1.94-.95,3.01-2.93,2.93Z"/>
    <path class="c" d="M222.71,494.33c3.03-7.17,5.89-12.67,9.77-19.54l-9.77,19.54Z"/>
    <path class="c" d="M419.07,432.79c-1.96-1.41-5.69-2.02-5.86-5.86,1.9,2.08,3.87,3.9,5.86,5.86Z"/>
    <path class="c" d="M317.47,258.9c-.71,1.67-.73,3.46-2.93,2.93.96-.97,2.01-1.97,2.93-2.93Z"/>
    <path class="c" d="M292.07,282.34c1.93.37-1.04,2.57-1.46,2.94-6.29,5.65-12.2,11.47-18.08,17.57,5.69-7.62,12.65-14.06,19.54-20.51Z"/>
    <path class="c" d="M249.09,402.5c1.89-5.51,5.12-10.51,7.82-15.63-.96,5.68-4.98,10.76-7.82,15.63Z"/>
    <path class="c" d="M475.73,508.98l-.98-1.95c.01.11.78.32.98,1.95Z"/>
    <path class="f" d="M598.81,261.83c-1.45-.81-4.38-1.05-1.95-1.95.79.71,1.31,1.34,1.95,1.95Z"/>
    <path class="c" d="M319.42,256.95l4.88-4.88c-.86,2.32-3.54,3.42-4.88,4.88Z"/>
    <path class="c" d="M304.77,271.6l4.88-4.88c-1.65,1.59-3.18,3.27-4.88,4.88Z"/>
    <g>
      <path class="i" d="M601.74,494.33c2.92-3.2,15.71-18.61,18.09-19.53,1.77-.68,1.67,2.5,2.86,3.95,1.71,2.11,3.68,3.72,5.44,5.81,5.09,6.05,7.02,8.81,13.68,13.68,3.65,2.66,8.65,2.32,4.88,7.82-4.11,3.5-8.11,7.19-12.13,10.79-.47.42-3.56,2.37-1.55,2.89-.97.99-1.97,1.95-2.93,2.93l-6.81,5.36c-14.21,15.77-29.74,30.58-44.97,45.44-1.64,1.6-3.22,3.27-4.88,4.88-1.99,1.93-3.9,3.96-5.86,5.86-.33.32-.65.66-.98.98-6.68,4.8-12.22,10.85-18.57,16.11-.37.31-3.86,2.97-1.94,3.43-4.73,4.24-10.85,10.32-15.63,13.68s-5.49,4.85-9.77,8.79c-12.13,11.19-25.8,23.86-40.05,32.24-4.76-1.51-4.66,1.73-5.85,2.42-1.5.87-3.19.15-4.19.56-1.17.48-2.19,3.49-6.58,1.89l2.94-11.71c9.35-18.22,22.72-32.52,35.17-47.38,20.95-25,42.07-49.8,64.48-73.76,3.64-3.9,7.62-8.37,10.75-11.72.31-.34.66-.64.98-.98,7.72-8.26,15.82-16.07,23.45-24.42Z"/>
      <path class="m" d="M658.4,519.73c1.73-2.4,10.91-10.16,13.17-9.82.48.07.45,1.99,1.1,2.06,1.96.21,6.23-1.53,9.17-.05.27,1.47-1.59.95-2.36,2.01-2.46,3.39-1.68,4.31-6.43,6.77l-16.61,1.94c-.23-.17,1.53-2.33,1.95-2.92Z"/>
      <path class="f" d="M709.2,398.6c20.4,22.02,20.03,66.52-5.5,84.82-17.87,12.81-34.46,11.8-52.14-.81,2.6-2.16,4.23,2.01,5.56,2.78.53.31,10.52,3.7,11.6,3.99,7.72,2.12,10.56,3.24,18.18-.05,3.32-1.43,6.99-2.78,10.78-4.84,3.2-1.74,12.64-7.82,14.88-10.73s2.24-6.13,3.54-8.96c8.34-18.16,8.2-43.29-3.11-60.69-1.23-1.89-3.65-2.9-3.79-5.51Z"/>
      <path class="f" d="M593.93,466.98c2.3-.45,4.25,1.78,6.22,1.73,2.82-.07,6.05-5.95,6.28-8.33.68-6.97-9.81-6.82-12.02-10.99-1.81-3.42,1-2.67,1.48-3.59.65-1.25.6-3.4,1.19-4,.53-.55,6.86-2.32,8.1-2.29,4.09,3.2,9.74,4.42,13.65,7.93,4.02,3.61,7.95,10.23,12.72,13.65l7.31,9.78c-8.08-8.11-23.25-27.94-35.02-28.76-6.78-.47-9.44,6.93-5.32,9.03,3.55,1.81,8.25,1.39,9.06,7.61.49,3.77-4.44,11.52-7.45,12.03-1.07.18-5-2.92-6.21-3.81Z"/>
      <path class="o" d="M466.93,652.59l-2.94,11.71c4.39,1.6,5.41-1.41,6.58-1.89,1-.41,2.69.31,4.19-.56,1.19-.69,1.08-3.93,5.85-2.42-3.81,2.24-12.37,8.36-16.6,6.35-4.63-2.19,1.48-10.37,2.92-13.19Z"/>
      <path class="f" d="M486.47,597.88c-4.12,6.58-9.14,12.74-13.86,18.92-8.22,10.77-18.65,22.94-23.74,35.81-6.72,16.97-4.3,31.22,17.08,29.29-8.41,8.07-21.86-4.68-22.43-13.31-.77-11.56,8.21-23.34,12.96-33.61.4-.86-.4-1.87-.31-1.92.65-.33,2.74.47,3.75-.16.47-.29,1.19-3.42,1.84-4.49,6.26-10.41,16.37-20.82,24.71-30.53Z"/>
      <path class="c" d="M658.4,519.73c-.42.59-2.19,2.75-1.95,2.92l16.61-1.94c-5.88,3.05-13.96,4.16-20.51,3.9l5.86-4.87Z"/>
      <path class="o" d="M520.66,627.19c4.28-3.94,4.84-5.33,9.77-8.79-2.67,3.1-5.74,7.52-9.77,8.79Z"/>
      <path class="o" d="M601.74,494.33c-7.63,8.35-15.73,16.16-23.45,24.42l23.45-24.42Z"/>
      <path class="o" d="M546.06,604.72c-1.92-.47,1.57-3.13,1.94-3.43,6.35-5.26,11.89-11.31,18.57-16.11-6.8,6.57-13.47,13.22-20.51,19.54Z"/>
      <path class="o" d="M641.8,498.24c-6.66-4.86-8.59-7.62-13.68-13.68l13.68,13.68Z"/>
      <path class="f" d="M686.73,375.15c5.04,4.95,11.07,9.38,14.65,15.63-4.89-4.98-10.65-9.87-14.65-15.63Z"/>
      <path class="f" d="M673.06,360.5c2.56,2.69,6.26,5.36,7.82,8.79-2.79-2.7-6.52-4.81-7.82-8.79Z"/>
      <path class="o" d="M633.01,519.73c-2.01-.52,1.08-2.47,1.55-2.89,4.02-3.6,8.02-7.29,12.13-10.79-3.62,5.28-9.24,9.15-13.68,13.68Z"/>
      <path class="o" d="M577.32,519.73c-3.13,3.35-7.1,7.83-10.75,11.72l10.75-11.72Z"/>
      <path class="o" d="M630.07,522.66c-12.79,13.03-25.5,26.27-38.56,39.1l-13.21,11.7c15.23-14.86,30.76-29.67,44.97-45.44l6.81-5.36Z"/>
      <path class="f" d="M672.08,359.52c-2.65.24-3.24-2.99-3.91-3.91,2.01.69,2.72,2.69,3.91,3.91Z"/>
      <path class="f" d="M685.76,374.17l-2.93-2.93c1.02.98,1.94,1.97,2.93,2.93Z"/>
      <path class="o" d="M567.55,584.21c1.96-1.9,3.87-3.93,5.86-5.86l-5.86,5.86Z"/>
      <path class="e" d="M678.92,414.23c.78.58,7.9,15.73,8.36,17.52,1.24,4.89,1.04,7.33-.54,11.78-3.39-22.1-13.44-5.15-6.84,7.82-5.88,1.52-9.83.68-14.7-3.37-.6-.5-5.58-6.96-5.81-7.37-3.98-7.2-6.01-19.1-1.42-26.33,5.36-8.44,11.34-4.48,18.05-.51.91.54,2.67.28,2.91.46Z"/>
      <path class="m" d="M686.73,443.53c-.7,1.96-1.95,3.7-1.95,5.86-1.55,1-3.11,1.5-4.88,1.95-6.6-12.97,3.45-29.92,6.84-7.82Z"/>
      <path class="f" d="M659.38,440.6c-3.64-2.86-5.74-10.84-5.89-15.19-.24-7.09,6.84-20.4,14.96-17.83.5.16,8.46,3.92,9.27,4.38,1.61.93,1.06,2.13,1.2,2.26,5.16,5.15,5.52,5.6,8.82,12.97.24.53,1.5.57,1.85,1.47,2.78,6.95,1.74,16.51-4.81,20.73,0-2.17,1.26-3.9,1.95-5.86,1.58-4.45,1.78-6.89.54-11.78-.46-1.8-7.58-16.94-8.36-17.52-.25-.18-2.01.08-2.91-.46-6.7-3.97-12.68-7.93-18.05.51-4.59,7.23-2.57,19.13,1.42,26.33Z"/>
      <g>
        <path class="h" d="M850.85,212.01c.48,1.88,2.33-.17,2.88-.83.81-.99,4.58-8.44,6.43-5.03.61,1.13-.52,2.14-.2,2.77,2.98,5.86,6.79,16.04,8.2,26.33,1.64,11.94,2.27,27.68-.06,39.62-2.65,13.54-10.2,30.36-19.2,41.67-.76.95-1.42,1.35-1.95,1.95-2.91-.84-2.54.89-3.56,1.8-5.27,4.7-11.21,7.68-16.74,10.26-3.9,1.83-14.47,7.06-18.22,7.56-1.97.26-9.89.31-10.89-1.03-.59-.78.62-12.01.61-14.23-.01-2.36-1.21-4.66-1.13-6.84.06-1.8,1.91-1.3,2.08-2.09.5-2.32-1.13-4.38-1.04-5.63.04-.6,1.98-.46,2.02-1.11.58-8.94,2.58-17.01,5.13-26.04.54-1.92,4.84-8.29-.27-5.64-1.73.9-2.72,2.48-3.91,3.91-1.69-2.83-2.34.78-2.91,1.52-9.82,12.91-13.55,21.56-17.84,37.53-.31,1.16-.44,6.7-.75,6.86-3.12,1.6-4.02-3.69-4.78-6.44-7.23-26.05,5.25-45.54,21.39-63.88,8.1-9.2,28.15-18.64,39.08-26.38,2.15-1.52,1.72-1.56,3.35-2.99s3.97-1.68,3.49-3.85c.33-.33.65-.65.98-.98,2.11.09,4.43-3.92,5.86-5.86.52-.71,1.2-1.87,1.95-2.93Z"/>
        <path class="i" d="M741.44,367.33c8.48-8.34,16.81-16.72,25.09-25.26,2.5-.69,3.82,3.13,6.16,5.24s5.07,4.02,7.82,5.36c1.1.53,4.76.4,3.9,2.43-.44,1.06-3.02,2.68-3.97,3.93-4.36,5.78-9.61,11.92-14.59,18.06-5.92,7.31-11.25,14.72-16.61,22.47-1.99,2.88-5.7,6.83-6.84,8.79-1.71-.28-2.3.22-1.95,1.95-3.18-1.57-2.91-6.92-4.24-9.46-1.57-3-5.45-6.09-7.49-8.13-.32-.32-.65-.67-.98-.98-.45-3.26-4.69-4.28-1.95-7.82.33-.32.63-.67.98-.98,2.56-2.29,7.3-4.2,6.84-7.82.32-.33.65-.65.98-.98l3.91-3.91c.97-.94,1.95-1.96,2.93-2.93Z"/>
        <path class="b" d="M850.85,212.01c1.23-1.73,6.75-10.46,7.34-10.74,1.52-.71,3.36,4.69,3.89,5.87,14.5,32.6,13.75,83.28-13.18,109.4,8.99-11.31,16.55-28.14,19.2-41.67,2.34-11.94,1.7-27.68.06-39.62-1.41-10.29-5.22-20.48-8.2-26.33-.32-.63.82-1.64.2-2.77-1.85-3.41-5.62,4.05-6.43,5.03-.55.67-2.4,2.71-2.88.83Z"/>
        <path class="b" d="M804.94,275.51c5.1-2.65.81,3.73.27,5.64-2.55,9.02-4.55,17.1-5.13,26.04-.04.64-1.97.5-2.02,1.11-.09,1.25,1.54,3.31,1.04,5.63-.17.78-2.02.29-2.08,2.09-.08,2.17,1.11,4.48,1.13,6.84.01,2.22-1.19,13.45-.61,14.23,1,1.34,8.92,1.29,10.89,1.03,3.75-.49,14.32-5.73,18.22-7.56,5.53-2.59,11.47-5.57,16.74-10.26,1.02-.91.65-2.63,3.56-1.8-11.88,13.46-33.91,22.47-51.78,21.5-1.77-22.49,4.62-43.02,9.77-64.48Z"/>
        <path class="b" d="M796.15,254.99c-16.14,18.34-28.62,37.83-21.39,63.88.76,2.75,1.67,8.04,4.78,6.44.31-.16.44-5.7.75-6.86,4.29-15.97,8.02-24.62,17.84-37.53.56-.74,1.21-4.35,2.91-1.52-12.2,14.63-19.14,33.67-20.52,52.75-17.49-21.96-8.91-51.01,7.85-70.8,1.94-2.29,4.75-5.64,7.79-6.38Z"/>
        <path class="o" d="M728.74,392.73c2.04,2.03,5.91,5.12,7.49,8.13,1.33,2.53,1.06,7.88,4.24,9.46-.34-1.73.24-2.23,1.95-1.95-.22.38.24,1.75,0,1.95s-1.68-.2-1.95,0c-.5.36-.12,4.1-1.94,3.9-1.09-7.99-5-15.13-9.78-21.49Z"/>
        <path class="o" d="M765.86,377.1c.31,1.72-1.98,4.84-2.94,6.09-4.25,5.56-8.78,11.33-13.67,16.38,5.36-7.75,10.68-15.16,16.61-22.47Z"/>
        <path class="o" d="M726.79,382.96c.9-2.88,4.61-5.49,6.84-7.82.46,3.61-4.28,5.53-6.84,7.82Z"/>
        <path class="o" d="M741.44,367.33l25.89-27.34c3.54,5.24,8.92,8.22,13.19,12.68-2.76-1.34-5.44-3.21-7.82-5.36s-3.67-5.93-6.16-5.24c-8.28,8.53-16.61,16.91-25.09,25.26Z"/>
        <path class="o" d="M727.76,391.76c-1.29-1.21-5.2-4.44-4.88-5.36.63-1.19,2.14-1.69,2.92-2.46-2.74,3.53,1.5,4.55,1.95,7.82Z"/>
        <path class="b" d="M848.9,214.94c-1.43,1.94-3.76,5.95-5.86,5.86,1.83-1.82,3.23-4.64,5.86-5.86Z"/>
        <path class="b" d="M842.06,221.78c.48,2.17-1.91,2.46-3.49,3.85s-1.19,1.46-3.35,2.99c1.53-2.94,4.68-4.68,6.84-6.84Z"/>
        <path class="o" d="M734.6,374.17c1.32-1.34,2.55-2.59,3.91-3.91l-3.91,3.91Z"/>
      </g>
    </g>
    <path class="c" d="M412.23,425.95l-2.93-2.93c.43.56,1.98,1.83,2.93,2.93Z"/>
    <path class="e" d="M417.11,600.81c1.69,3.04,14.8,24.05,13.67,25.4-4.92-3.68-10.34-6.88-15.11-10.77-5.1-4.17-11.06-11.69-16.15-14.63l-15.82-24.26c-.56-.44-1.26-.06-1.77-.16-8.03-17.68-18.08-34.79-23.91-53.75-3.33-10.82-4.52-22.61-8.32-33.19-.04-.32.04-.66,0-.98-2.97-25.84-5.18-56.38-.98-82.06.05-.32-.05-.66,0-.98,1.47-8.49,5.63-17.9,7.16-26.54l3.57-7.65c-2.82,30.85-2.93,60.32,2.43,90.87,8.96,51.11,30.33,93.99,55.22,138.7Z"/>
    <path class="e" d="M560.72,321.42c-.29.11-1.51.07-1.95,0l-13.68-9.76c2.91,5.22-1.85,9.78-2.93,14.64-.76.7-2.72,2.78-2.93,2.93-2.78-.07-5.15,1.57-7.82,1.95-.9.13-1.98-.03-2.93,0-1.3.04-2.61-.03-3.91,0h-.98c-2.84-1.07-5.47-1.83-7.82-3.91-.82-.97-.9-1.11-1.95-1.95-2.89-4.95-4.21-11.16-1.95-16.6l-15.63,2.92c-.6-.16-3.08.41-1.45-.97,7.25-4.4,13.84-9.84,21.97-12.71,21.85-7.71,38.19,1.44,43.96,23.45Z"/>
    <path class="f" d="M348.73,405.43c1.18-9.56,4.08-26.36,9-34.47,1.87-3.08,4.4-.42,4.41.75,0,.52-1.52,1.54-1.6,2.89-.1,1.63,1.04,4.28.96,6.91-.14,4.17-3.08,9.64-2.02,13.52.22.8,2.14.57,1.96,1.1-3.32,10.33-1.28,19.64-1.03,30.29.05,2.21-1.26,4.37-1.03,6.86,1.06,11.71,3.84,23.89,6.51,36.59,2.78,13.24,5.91,31.03,11.87,44.73.54,1.24,2.2,1.18,2.29,1.85.49,3.73-.6,1.44.84,5,6.61,16.33,12.68,32.75,20.7,48.48,4.78,9.37,11.23,17.31,15.09,26.92.42,1.05,2.38,3.39.44,3.96-24.88-44.7-46.26-87.59-55.22-138.7-5.36-30.55-5.25-60.02-2.43-90.87l-3.57,7.65c-1.53,8.64-5.69,18.06-7.16,26.54Z"/>
    <path class="f" d="M444.46,229.59c-3.77-6.69-5.26-7.27-5.73-16.24-.91-17.33,4.44-31.87,10.49-46.09,1.65-3.88,6.25-20.66,10.39-20.53,4.8.14,2.29,18.41,2.39,21.86.6,21.15,4.08,39.14-8.46,57.38-1.34,1.94.2,4.76-4.93,6.31-5.94,1.79-3.46-1.46-4.15-2.68.09.13,2.29,1.76,2.44,1.76,7.23-5.06,11.3-15.44,12.9-24.03,3.46-18.58.35-39.93.28-58.81-1.37.06-2.04,2.58-2.62,3.72-9.12,18.07-25.96,58.88-13,77.36Z"/>
    <path class="f" d="M349.71,488.47c-1.18-1.12-1.46-3.11-1.69-4.66-2.96-19.89-3.88-42.21-2.21-62.25.39-4.72,1.16-10.75,2.92-15.15-4.2,25.67-1.99,56.22.98,82.06Z"/>
    <path class="f" d="M381.94,576.39c.5.09,1.2-.29,1.77.16l15.82,24.26c-.39-.23-2.02.33-2.96-.45s-.61-2.74-1.19-3.27c-.66-.6-2.43.01-2.69-.19-.3-.24,1.66-2.72.89-3.77-.21-.29-1.96-.56-2.83-1.56-4.53-5.21-6.15-9.36-8.79-15.18-.74-.14-2.62.29-2.88-.04s.2-2.46-.58-3.84c-2.83-5.01-4.83-9.79-7.63-15.43-10.52-21.18-18.29-43.57-21.15-67.63,3.8,10.58,4.99,22.38,8.32,33.19,5.83,18.96,15.88,36.07,23.91,53.75Z"/>
    <path class="f" d="M496.24,311.65l15.63-2.92c-2.25,5.44-.94,11.65,1.95,16.6-.18-.14-1.3.33-1.75-.16-.49-.53-.53-2.79-1.17-4.07-.71-1.41-2.13-2.58-2.65-5.83-.13-.84,1.63-4.11-.8-4.6-.7-.14-2.82,1.73-4.8,2.02-3.06.44-4.05-.41-6.41-1.04Z"/>
    <path class="f" d="M558.76,321.42c-3.12-.49-10.01-6.4-11.72-4.89-.38.34-.74,7.5-3.21,9.53-.56.46-1.55.12-1.68.24,1.08-4.87,5.84-9.42,2.93-14.64l13.68,9.76Z"/>
    <path class="f" d="M516.75,297.97c-.56-2.6,1.3-1.94,2.92-2.41,4.93-1.41,16.52-2.64,21.16-.76.83.34,8.75,4.61,9.42,5.07,3.6,2.49,8.66,11.13,10.14,15.51.41,1.21,1.83,5.46.32,6.03-5.77-22.01-22.11-31.15-43.96-23.45Z"/>
    <path class="f" d="M523.59,331.19c.18.07.22.69.48.96l.49-.96c1.3-.03,2.61.04,3.91,0l.58.89,2.35.09c-4.97.93-10.38,1.68-14.66-2.47-.97-.94-.77-2.18-.97-2.41,2.35,2.08,4.98,2.84,7.82,3.91Z"/>
    <path class="f" d="M539.22,329.24c-3.77,2.61-3.59,2.14-7.82,2.93v-.98c2.66-.38,5.03-2.02,7.82-1.95Z"/>
    <path class="g" d="M465.47,121.16c.63.33.63.65,0,.98v-.98Z"/>
    <path class="m" d="M220.27,405.43c.63.33.63.65,0,.98v-.98Z"/>
    <path class="g" d="M523.59,331.19h.98l-.49.96c-.27-.27-.31-.89-.48-.96Z"/>
    <path class="e" d="M444.46,229.59c-12.96-18.48,3.88-59.29,13-77.36.58-1.14,1.24-3.66,2.62-3.72.08,18.88,3.18,40.23-.28,58.81-1.6,8.59-5.68,18.97-12.9,24.03-.15,0-2.35-1.63-2.44-1.76Z"/>
  </g>
  <path class="n" d="M406.37,840.15c-.37.32-.66.59-.98.98-4.05,1.3-11.4,2.27-14.65-.98l7.32,1.06c1.57.93,7.8-3.33,8.31-1.06Z"/>
  <path class="p" d="M633.98,809.87c.29.33.74.61.98.98,5.24,8.25,5.68,28.9-5.15,32.46-27.12,8.91-25.96-49.76,4.17-33.44Z"/>
</svg>